{"glyphs":{"0":{"ha":745,"x_min":61,"x_max":684,"o":"m 372 869 q 224 769 278 869 q 171 490 171 668 q 224 210 171 311 q 372 110 278 110 q 521 210 467 110 q 574 490 574 311 q 521 769 574 668 q 372 869 467 869 m 372 0 q 144 130 227 0 q 61 490 61 260 q 144 850 61 720 q 372 979 227 979 q 602 850 519 979 q 684 490 684 720 q 602 130 684 260 q 372 0 519 0 z "},"1":{"ha":343,"x_min":61,"x_max":282,"o":"m 205 981 l 61 838 l 139 761 l 172 794 l 172 0 l 282 0 l 282 975 l 205 981 z "},"2":{"ha":653,"x_min":61,"x_max":592,"o":"m 83 0 l 83 111 l 420 568 q 450 693 450 614 q 446 749 450 723 q 427 807 439 783 q 311 871 391 871 q 195 808 231 871 q 176 749 182 783 q 171 694 171 724 l 171 671 l 61 680 l 61 699 q 130 905 63 830 q 311 981 197 981 q 492 903 425 981 q 560 693 560 825 q 511 506 560 581 l 510 505 l 219 110 l 592 110 l 583 0 l 83 0 z "},"3":{"ha":675,"x_min":61,"x_max":614,"o":"m 338 0 q 136 78 210 0 q 61 289 62 155 l 61 312 l 171 303 l 171 284 q 216 155 172 200 q 338 110 259 110 q 462 157 418 110 q 505 290 505 203 q 462 425 505 378 q 338 471 418 471 l 236 471 l 245 581 l 338 581 q 446 629 413 581 q 472 726 472 665 q 446 824 472 787 q 338 871 413 871 q 204 733 208 871 l 203 714 l 94 705 l 94 728 q 161 913 95 844 q 338 981 228 981 q 515 912 449 981 q 582 726 582 842 q 507 531 582 601 q 614 290 614 454 q 539 79 614 158 q 338 0 464 0 z "},"4":{"ha":680,"x_min":61,"x_max":619,"o":"m 372 983 l 61 336 l 114 274 l 372 274 l 372 0 l 481 0 l 481 274 l 619 274 l 619 384 l 481 384 l 481 567 l 373 576 l 372 576 l 372 384 l 205 384 l 441 873 l 497 873 l 506 983 l 372 983 z "},"5":{"ha":656,"x_min":61,"x_max":595,"o":"m 328 0 q 134 84 205 0 q 61 313 62 168 l 61 336 l 171 327 l 171 308 q 177 245 172 275 q 200 181 184 208 q 328 110 239 110 q 458 184 418 110 q 479 251 473 212 q 485 316 485 281 q 479 380 485 351 q 458 448 473 419 q 329 522 419 522 l 94 522 l 130 979 l 589 979 l 580 869 l 231 869 l 213 632 l 329 632 q 524 547 452 631 q 595 316 595 462 q 523 85 595 170 q 328 0 451 0 z "},"6":{"ha":610,"x_min":61,"x_max":549,"o":"m 304 522 q 194 448 228 522 q 176 380 181 419 q 171 316 171 351 q 176 251 171 281 q 194 184 181 212 q 304 110 228 110 q 416 184 382 110 q 434 251 429 212 q 439 316 439 281 q 434 380 439 351 q 416 448 429 419 q 304 522 382 522 m 304 0 q 127 85 192 0 q 61 316 61 170 l 61 330 l 61 338 q 181 798 61 628 q 521 979 304 971 l 545 980 l 536 870 l 517 869 q 271 734 361 861 q 211 613 235 683 q 304 632 254 632 q 483 547 418 632 q 549 316 549 462 q 483 85 549 170 q 304 0 418 0 z "},"7":{"ha":668,"x_min":61,"x_max":607,"o":"m 92 979 l 83 869 l 479 869 l 61 -14 l 160 -61 l 602 869 l 607 881 l 599 979 l 92 979 z "},"8":{"ha":675,"x_min":61,"x_max":614,"o":"m 338 871 q 229 824 263 871 q 204 726 204 787 q 229 629 204 665 q 338 581 263 581 q 446 629 413 581 q 472 726 472 665 q 446 824 472 787 q 338 871 413 871 m 338 471 q 214 425 257 471 q 171 290 171 378 q 214 157 171 203 q 338 110 257 110 q 462 157 418 110 q 505 290 505 203 q 462 425 505 378 q 338 471 418 471 m 338 0 q 136 79 212 0 q 61 290 61 158 q 170 531 61 454 q 94 726 94 601 q 161 912 94 842 q 338 981 227 981 q 515 912 449 981 q 582 726 582 842 q 507 531 582 601 q 614 290 614 454 q 539 79 614 158 q 338 0 464 0 z "},"9":{"ha":610,"x_min":61,"x_max":549,"o":"m 304 870 q 194 796 228 870 q 176 729 181 768 q 171 664 171 699 q 176 600 171 629 q 194 532 181 561 q 304 458 228 458 q 416 532 382 458 q 434 600 429 561 q 439 664 439 629 q 434 729 439 699 q 416 796 429 768 q 304 870 382 870 m 73 110 l 92 111 q 338 245 249 119 q 399 367 375 297 q 304 348 356 348 q 127 433 192 348 q 61 664 61 518 q 127 895 61 810 q 304 980 192 980 q 483 895 418 980 q 549 664 549 810 l 549 650 l 549 642 q 428 182 549 352 q 89 1 305 9 l 65 0 l 73 110 z "},"\u0000":{"ha":0,"x_min":0,"x_max":0,"o":""},"\u001d":{"ha":0,"x_min":0,"x_max":0,"o":""}," ":{"ha":345,"x_min":0,"x_max":0,"o":""}," ":{"ha":345,"x_min":0,"x_max":0,"o":""},"!":{"ha":279,"x_min":61,"x_max":218,"o":"m 94 210 l 202 201 l 218 1050 l 61 1059 l 94 210 m 148 0 q 103 18 121 0 q 85 63 85 37 q 103 108 85 90 q 148 127 121 127 q 193 108 174 127 q 211 63 211 90 q 193 18 211 37 q 148 0 174 0 z "},"\"":{"ha":350,"x_min":61,"x_max":289,"o":"m 61 769 l 134 769 l 155 1024 l 81 1024 l 61 769 m 289 1024 l 216 1024 l 195 769 l 268 769 l 289 1024 z "},"#":{"ha":823,"x_min":61,"x_max":762,"o":"m 522 711 l 342 711 l 374 951 l 302 958 l 269 711 l 111 711 l 96 637 l 258 637 l 235 458 l 77 458 l 61 385 l 224 385 l 192 144 l 264 138 l 298 385 l 477 385 l 445 144 l 517 138 l 551 385 l 711 385 l 727 458 l 561 458 l 585 637 l 745 637 l 762 711 l 595 711 l 627 951 l 555 958 l 522 711 m 332 637 l 511 637 l 487 458 l 308 458 l 332 637 z "},"$":{"ha":671,"x_min":61,"x_max":610,"o":"m 461 483 q 536 348 536 442 q 461 212 536 254 l 461 483 m 388 581 q 335 585 362 585 q 298 587 316 585 l 298 874 q 335 877 316 877 q 388 872 363 877 l 388 581 m 388 189 q 335 184 362 184 q 298 186 317 184 l 298 513 q 335 511 317 511 q 388 507 362 511 l 388 189 m 224 608 q 155 730 155 644 q 224 854 155 817 l 224 608 m 461 844 q 515 731 515 808 l 589 737 q 461 927 585 876 l 461 1019 l 388 1025 l 388 947 q 335 950 363 950 q 298 948 317 950 l 298 1017 l 224 1023 l 224 933 q 119 857 157 909 q 81 730 81 805 q 119 604 81 656 q 224 528 157 551 l 224 205 q 134 340 138 243 l 61 346 q 104 207 62 264 q 224 126 147 151 l 224 6 l 298 0 l 298 113 q 335 111 317 111 q 388 114 362 111 l 388 8 l 461 2 l 461 132 q 570 213 532 157 q 610 348 610 269 q 570 482 610 426 q 461 564 532 538 l 461 844 z "},"%":{"ha":776,"x_min":61,"x_max":715,"o":"m 133 16 l 241 7 l 643 854 l 534 863 l 133 16 m 218 761 q 179 732 191 761 q 170 674 170 710 q 179 616 170 637 q 218 587 191 587 q 256 616 245 587 q 266 674 266 637 q 256 732 266 710 q 218 761 245 761 m 218 478 q 104 531 146 478 q 61 674 61 585 q 104 817 61 763 q 218 870 146 870 q 332 817 290 870 q 375 674 375 763 q 332 531 375 585 q 218 478 290 478 m 558 283 q 519 254 532 283 q 511 196 511 233 q 519 138 511 159 q 558 109 532 109 q 597 138 585 109 q 606 196 606 159 q 597 254 606 233 q 558 283 585 283 m 558 0 q 444 54 487 0 q 401 196 401 106 q 444 338 401 286 q 558 392 487 392 q 672 338 629 392 q 715 196 715 286 q 672 54 715 106 q 558 0 629 0 z "},"&":{"ha":764,"x_min":61,"x_max":703,"o":"m 554 56 q 371 3 478 3 q 144 94 227 3 q 61 340 61 184 q 144 587 61 496 q 371 677 227 677 q 469 723 438 677 q 492 817 492 758 q 469 910 492 876 q 371 956 438 956 q 251 841 262 956 l 250 826 l 140 817 l 142 838 q 209 1004 147 943 q 371 1065 271 1065 q 538 998 475 1065 q 601 817 601 930 q 538 635 601 703 q 371 568 475 568 q 222 509 274 568 q 170 340 170 450 q 222 171 170 230 q 371 112 274 112 q 515 166 463 112 q 571 322 567 220 l 572 338 l 681 347 l 680 327 q 629 136 677 215 l 703 82 l 631 0 l 554 56 z "},"'":{"ha":216,"x_min":61,"x_max":155,"o":"m 61 769 l 134 769 l 155 1024 l 81 1024 l 61 769 z "},"(":{"ha":317,"x_min":61,"x_max":256,"o":"m 184 1024 q 61 512 61 783 q 184 0 61 241 l 186 0 l 256 3 q 134 512 134 243 q 256 1021 134 781 l 186 1024 l 184 1024 z "},")":{"ha":317,"x_min":61,"x_max":256,"o":"m 130 1024 l 61 1021 q 182 512 182 781 q 61 3 182 243 l 130 0 l 133 0 q 256 512 256 241 q 133 1024 256 783 l 130 1024 z "},"*":{"ha":369,"x_min":61,"x_max":308,"o":"m 127 1087 l 75 1036 l 133 968 l 61 907 l 113 855 l 180 912 l 241 841 l 293 892 l 236 960 l 308 1021 l 256 1073 l 189 1015 l 127 1087 z "},"+":{"ha":377,"x_min":61,"x_max":316,"o":"m 142 661 l 149 567 l 61 560 l 61 487 l 155 494 l 162 406 l 235 406 l 228 500 l 316 507 l 316 581 l 222 573 l 215 661 l 142 661 z "},",":{"ha":242,"x_min":61,"x_max":181,"o":"m 72 71 l 61 -68 l 170 -68 l 181 71 l 72 71 z "},"-":{"ha":377,"x_min":61,"x_max":316,"o":"m 61 572 l 61 499 l 316 520 l 316 593 l 61 572 z "},"­":{"ha":377,"x_min":61,"x_max":316,"o":"m 61 572 l 61 499 l 316 520 l 316 593 l 61 572 z "},".":{"ha":249,"x_min":61,"x_max":188,"o":"m 124 -7 q 79 12 98 -7 q 61 56 61 31 q 79 101 61 83 q 124 120 98 120 q 169 101 151 120 q 188 56 188 83 q 169 12 188 31 q 124 -7 151 -7 z "},"/":{"ha":434,"x_min":61,"x_max":373,"o":"m 304 981 l 61 0 l 132 0 l 373 975 l 307 981 l 304 981 z "},":":{"ha":213,"x_min":61,"x_max":152,"o":"m 106 700 q 74 686 87 700 q 61 654 61 673 q 74 623 61 635 q 106 609 87 609 q 138 623 125 609 q 152 654 152 635 q 138 686 152 673 q 106 700 125 700 m 106 452 q 74 439 87 452 q 61 406 61 425 q 74 374 61 387 q 106 361 87 361 q 138 374 125 361 q 152 406 152 387 q 138 439 152 425 q 106 452 125 452 z "},";":{"ha":213,"x_min":61,"x_max":152,"o":"m 66 348 l 139 348 l 147 452 l 74 452 l 66 348 m 106 700 q 74 686 87 700 q 61 654 61 673 q 74 623 61 635 q 106 609 87 609 q 138 623 125 609 q 152 654 152 635 q 138 686 152 673 q 106 700 125 700 z "},";":{"ha":213,"x_min":61,"x_max":152,"o":"m 66 348 l 139 348 l 147 452 l 74 452 l 66 348 m 106 700 q 74 686 87 700 q 61 654 61 673 q 74 623 61 635 q 106 609 87 609 q 138 623 125 609 q 152 654 152 635 q 138 686 152 673 q 106 700 125 700 z "},"<":{"ha":342,"x_min":61,"x_max":281,"o":"m 267 588 l 62 530 l 61 457 l 281 393 l 276 467 l 189 493 l 272 517 l 267 588 z "},"=":{"ha":377,"x_min":61,"x_max":316,"o":"m 61 534 l 316 554 l 316 627 l 61 607 l 61 534 m 61 399 l 316 420 l 316 493 l 61 473 l 61 399 z "},">":{"ha":342,"x_min":61,"x_max":281,"o":"m 71 517 l 154 493 l 66 467 l 61 393 l 281 457 l 281 530 l 75 588 l 71 517 z "},"?":{"ha":664,"x_min":61,"x_max":603,"o":"m 277 211 l 277 618 l 332 618 q 494 783 494 618 q 332 949 494 949 q 170 786 172 949 l 170 767 l 61 776 l 62 792 q 137 987 64 916 q 332 1058 210 1058 q 530 984 458 1058 q 603 783 603 911 q 545 602 603 673 q 387 513 488 529 l 387 202 l 277 211 m 332 0 q 288 18 306 0 q 269 63 269 37 q 288 108 269 90 q 332 127 306 127 q 377 108 358 127 q 395 63 395 90 q 377 18 395 37 q 332 0 358 0 z "},"@":{"ha":884,"x_min":61,"x_max":823,"o":"m 549 465 q 553 512 553 488 q 549 559 553 536 q 534 614 545 590 q 441 680 507 680 q 349 614 376 680 q 334 559 338 591 q 331 512 331 537 q 334 465 331 487 q 349 410 338 433 q 441 345 376 345 q 534 410 507 345 q 549 465 545 434 m 724 376 q 720 298 724 337 q 749 512 749 393 q 666 838 749 721 q 441 951 586 951 q 217 838 297 951 q 134 512 134 721 q 217 186 134 303 q 441 73 297 73 l 452 74 l 463 75 q 620 199 573 85 q 645 294 637 241 q 650 376 650 335 q 646 452 650 416 q 625 543 640 502 q 626 512 626 526 q 576 336 626 401 q 441 272 527 272 q 307 336 357 272 q 258 512 258 401 q 307 688 258 623 q 441 753 357 753 q 463 751 452 753 q 654 643 584 743 q 724 376 724 543 m 157 880 q 441 1024 259 1024 q 726 880 624 1024 q 823 512 823 745 q 726 144 823 280 q 441 0 624 0 q 157 144 259 0 q 61 512 61 280 q 157 880 61 745 z "},"A":{"ha":882,"x_min":61,"x_max":821,"o":"m 389 1025 l 61 0 l 178 0 l 283 327 l 599 327 l 704 0 l 821 0 l 496 1016 l 389 1025 m 441 821 l 562 441 l 319 441 l 441 821 z "},"B":{"ha":760,"x_min":61,"x_max":699,"o":"m 355 594 q 418 600 389 594 q 483 622 455 606 q 555 752 555 661 q 483 883 555 843 q 418 905 455 898 q 355 910 389 910 l 176 910 l 176 594 l 355 594 m 355 115 q 525 161 466 115 q 585 297 585 209 q 525 433 585 385 q 355 479 466 479 l 176 479 l 176 115 l 355 115 m 61 0 l 61 1025 l 355 1025 q 585 951 500 1025 q 669 752 669 878 q 569 541 669 615 q 699 297 699 461 q 606 80 699 159 q 355 0 514 0 l 61 0 z "},"C":{"ha":872,"x_min":61,"x_max":811,"o":"m 448 0 q 157 147 262 0 q 61 513 61 283 q 157 878 61 742 q 448 1025 262 1025 q 669 951 578 1025 q 803 741 761 878 l 811 715 l 694 705 l 689 722 q 448 910 625 910 q 251 811 321 910 q 176 513 176 705 q 251 214 176 319 q 448 115 321 115 q 689 303 625 115 l 694 319 l 811 310 l 803 283 q 669 73 761 146 q 448 0 578 0 z "},"D":{"ha":828,"x_min":61,"x_max":767,"o":"m 380 115 q 577 214 507 115 q 652 513 652 319 q 577 811 652 705 q 380 910 507 910 l 176 910 l 176 115 l 380 115 m 61 0 l 61 1025 l 380 1025 q 671 878 566 1025 q 767 513 767 742 q 671 147 767 283 q 380 0 566 0 l 61 0 z "},"E":{"ha":713,"x_min":61,"x_max":652,"o":"m 61 1025 l 61 0 l 642 0 l 642 115 l 176 115 l 176 459 l 607 459 l 616 574 l 176 574 l 176 910 l 643 910 l 652 1025 l 61 1025 z "},"F":{"ha":713,"x_min":61,"x_max":652,"o":"m 61 1024 l 61 0 l 176 0 l 176 458 l 607 458 l 616 573 l 176 573 l 176 909 l 644 909 l 652 1024 l 61 1024 z "},"G":{"ha":895,"x_min":61,"x_max":834,"o":"m 448 0 q 157 147 262 0 q 61 513 61 283 q 157 878 61 742 q 448 1025 262 1025 q 670 949 576 1025 q 804 738 763 874 l 812 711 l 696 702 l 690 718 q 448 910 626 910 q 251 811 321 910 q 176 513 176 705 q 251 214 176 319 q 448 115 321 115 q 644 214 574 115 q 718 455 707 302 l 446 455 l 455 570 l 834 570 l 834 513 q 738 147 834 283 q 448 0 633 0 z "},"H":{"ha":794,"x_min":61,"x_max":733,"o":"m 61 1025 l 61 0 l 176 0 l 176 459 l 618 459 l 618 0 l 733 0 l 733 1016 l 618 1025 l 618 574 l 176 574 l 176 1017 l 61 1025 z "},"I":{"ha":237,"x_min":61,"x_max":176,"o":"m 61 1025 l 61 0 l 176 0 l 176 1015 l 61 1025 z "},"J":{"ha":707,"x_min":61,"x_max":646,"o":"m 353 0 q 144 87 223 0 q 62 323 66 174 l 61 345 l 176 353 l 176 330 q 224 170 178 226 q 353 115 270 115 q 485 173 439 115 q 531 340 531 231 l 531 1027 l 646 1018 l 646 340 q 567 92 646 183 q 353 0 488 0 z "},"K":{"ha":832,"x_min":61,"x_max":771,"o":"m 572 1029 l 176 588 l 176 1017 l 61 1026 l 61 0 l 176 0 l 176 416 l 275 526 l 633 1 l 771 1 l 353 614 l 715 1017 l 572 1029 z "},"L":{"ha":606,"x_min":61,"x_max":545,"o":"m 61 1027 l 61 0 l 536 0 l 545 115 l 176 115 l 176 1017 l 61 1027 z "},"M":{"ha":869,"x_min":61,"x_max":808,"o":"m 61 1027 l 61 0 l 176 0 l 176 711 l 381 193 l 485 185 l 693 710 l 693 0 l 808 0 l 808 1017 l 700 1025 l 435 356 l 172 1017 l 61 1027 z "},"N":{"ha":709,"x_min":61,"x_max":648,"o":"m 61 1025 l 61 0 l 176 0 l 176 760 l 542 0 l 648 0 l 648 1013 l 534 1023 l 534 265 l 172 1015 l 61 1025 z "},"O":{"ha":895,"x_min":61,"x_max":834,"o":"m 448 910 q 251 811 321 910 q 176 513 176 705 q 251 214 176 319 q 448 115 321 115 q 644 214 574 115 q 720 513 720 319 q 644 811 720 705 q 448 910 574 910 m 448 0 q 157 147 262 0 q 61 513 61 283 q 157 878 61 742 q 448 1025 262 1025 q 738 878 633 1025 q 834 513 834 742 q 738 147 834 283 q 448 0 633 0 z "},"P":{"ha":739,"x_min":61,"x_max":678,"o":"m 329 537 q 503 585 442 537 q 564 724 564 633 q 503 862 564 814 q 329 910 442 910 l 176 910 l 176 537 l 329 537 m 61 0 l 61 1025 l 329 1025 q 584 944 490 1025 q 678 724 678 863 q 584 503 678 585 q 329 422 490 422 l 176 422 l 176 0 l 61 0 z "},"Q":{"ha":895,"x_min":61,"x_max":834,"o":"m 448 930 q 251 831 321 930 q 176 532 176 725 q 251 233 176 339 q 432 135 316 141 q 513 155 469 155 q 545 152 528 155 q 644 233 604 176 q 720 532 720 339 q 644 831 720 725 q 448 930 574 930 m 722 0 q 666 7 697 0 l 639 13 l 612 21 q 556 35 574 31 q 448 20 505 20 q 436 20 444 20 q 157 167 258 25 q 61 532 61 302 q 157 897 61 762 q 448 1044 262 1044 q 738 897 633 1044 q 834 532 834 762 q 738 167 834 302 q 695 117 719 140 q 722 115 710 115 q 787 132 758 115 l 824 152 l 814 24 l 802 19 q 722 0 766 0 z "},"R":{"ha":766,"x_min":61,"x_max":705,"o":"m 355 594 q 418 600 389 594 q 483 622 455 606 q 555 752 555 661 q 483 883 555 843 q 418 905 455 898 q 355 910 389 910 l 176 910 l 176 594 l 355 594 m 61 0 l 61 1025 l 355 1025 q 585 951 500 1025 q 669 752 669 878 q 557 532 669 606 l 565 526 l 573 521 l 574 520 l 580 515 l 590 506 l 595 502 l 602 494 l 614 481 l 614 481 l 626 464 l 631 457 l 635 450 l 637 446 q 647 426 644 434 l 654 410 l 654 409 l 657 397 l 659 393 q 663 378 661 387 l 664 372 l 665 366 l 667 351 l 668 340 q 669 319 669 321 l 669 97 q 686 34 670 62 l 705 1 l 584 1 l 578 12 q 555 96 555 50 l 555 319 l 555 323 l 554 339 l 553 350 l 551 357 l 550 363 l 550 365 l 549 370 l 547 374 l 543 386 l 543 387 l 541 390 l 539 394 q 536 399 538 396 l 536 401 l 534 403 l 534 404 l 527 414 l 517 426 q 506 436 507 435 l 500 440 l 500 441 q 484 451 496 444 l 479 454 l 472 457 q 455 464 460 463 l 454 465 l 454 465 q 433 471 448 467 l 429 471 q 414 475 424 473 l 405 476 l 399 477 l 393 477 l 385 478 l 380 479 l 374 479 l 369 479 l 353 479 l 176 479 l 176 0 l 61 0 z "},"S":{"ha":802,"x_min":61,"x_max":741,"o":"m 401 0 q 153 79 245 0 q 61 292 62 157 l 61 317 l 176 307 l 176 288 q 237 159 178 204 q 401 115 295 115 q 568 161 510 115 q 626 295 626 208 q 568 429 626 382 q 401 475 510 475 q 170 549 255 475 q 85 750 85 623 q 170 951 85 877 q 401 1025 255 1025 q 629 953 544 1025 q 716 758 713 882 l 717 737 l 602 728 l 602 752 q 529 882 601 843 q 464 905 501 898 q 401 910 435 910 q 338 905 368 910 q 273 882 300 898 q 200 750 200 842 q 273 618 200 658 q 338 595 300 603 q 401 590 368 590 q 650 511 558 590 q 741 295 741 432 q 650 79 741 159 q 401 0 558 0 z "},"T":{"ha":756,"x_min":61,"x_max":695,"o":"m 61 1025 l 61 910 l 321 910 l 321 0 l 435 0 l 435 910 l 695 910 l 695 1025 l 61 1025 z "},"U":{"ha":815,"x_min":61,"x_max":754,"o":"m 408 0 q 154 104 248 0 q 61 385 61 207 l 61 1026 l 176 1017 l 176 385 q 235 184 176 254 q 408 115 296 115 q 580 184 520 115 q 640 385 640 254 l 640 1025 l 754 1017 l 754 385 q 661 104 754 207 q 408 0 568 0 z "},"V":{"ha":846,"x_min":61,"x_max":785,"o":"m 178 1026 l 61 1017 l 370 0 l 477 0 l 785 1015 l 668 1024 l 423 219 l 178 1026 z "},"W":{"ha":923,"x_min":61,"x_max":862,"o":"m 176 1025 l 61 1017 l 165 0 l 272 0 l 462 601 l 651 0 l 758 0 l 862 1013 l 748 1022 l 673 299 l 513 808 l 410 808 l 250 300 l 176 1025 z "},"X":{"ha":951,"x_min":61,"x_max":890,"o":"m 721 1030 l 475 647 l 232 1026 l 102 1016 l 408 541 l 61 0 l 197 0 l 475 434 l 754 0 l 890 0 l 544 541 l 850 1019 l 722 1030 l 721 1030 z "},"Y":{"ha":870,"x_min":61,"x_max":809,"o":"m 680 1030 l 434 646 l 191 1026 l 61 1016 l 376 524 l 376 0 l 491 0 l 491 524 l 809 1019 l 680 1030 l 680 1030 z "},"Z":{"ha":853,"x_min":61,"x_max":792,"o":"m 112 1025 l 103 910 l 634 910 l 61 100 l 61 0 l 783 0 l 792 115 l 212 115 l 779 918 l 779 1025 l 112 1025 z "},"[":{"ha":377,"x_min":61,"x_max":316,"o":"m 61 1057 l 61 -88 l 316 -109 l 316 -35 l 134 -20 l 134 989 l 316 1004 l 316 1078 l 61 1057 z "},"\\":{"ha":434,"x_min":61,"x_max":373,"o":"m 127 981 l 61 975 l 302 0 l 373 0 l 130 981 l 127 981 z "},"]":{"ha":377,"x_min":61,"x_max":316,"o":"m 61 1078 l 61 1004 l 243 989 l 243 -20 l 61 -35 l 61 -109 l 316 -88 l 316 1057 l 61 1078 z "},"^":{"ha":317,"x_min":61,"x_max":256,"o":"m 161 897 l 185 813 l 256 819 l 199 1024 l 125 1024 l 61 804 l 136 810 l 161 897 z "},"_":{"ha":377,"x_min":61,"x_max":316,"o":"m 316 -1 l 61 -22 l 61 -95 l 316 -75 l 316 -1 z "},"`":{"ha":268,"x_min":61,"x_max":207,"o":"m 129 1032 l 61 1004 l 139 761 l 207 789 l 129 1032 z "},"a":{"ha":647,"x_min":61,"x_max":586,"o":"m 323 577 q 452 492 413 577 q 473 416 467 460 q 478 342 478 381 q 473 269 478 302 q 452 192 467 224 q 323 108 413 108 q 195 192 235 108 q 174 269 180 224 q 169 342 169 303 q 174 416 169 382 q 195 492 180 460 q 323 577 235 577 m 482 627 q 460 644 472 636 l 451 650 q 323 684 395 684 q 198 652 254 684 l 197 651 l 192 648 q 187 644 191 647 q 94 525 126 603 q 61 342 61 447 q 187 40 61 125 l 191 38 l 196 35 q 323 0 252 0 q 457 38 399 0 l 460 41 q 482 58 472 48 l 487 0 l 586 0 l 586 686 l 486 678 l 482 627 z "},"b":{"ha":647,"x_min":61,"x_max":586,"o":"m 323 108 q 197 190 236 108 q 175 264 182 222 q 169 336 169 298 l 169 348 q 175 420 169 387 q 197 494 182 463 q 323 576 236 576 q 452 492 412 576 q 473 416 467 460 q 478 342 478 382 q 473 269 478 303 q 452 192 467 224 q 323 108 412 108 m 460 644 q 455 648 456 647 l 450 651 l 449 652 q 323 684 393 684 q 195 650 252 684 l 186 644 q 169 630 177 637 l 169 980 l 61 989 l 61 0 l 160 0 l 165 58 q 186 41 175 49 l 190 38 q 323 0 248 0 q 452 35 395 0 l 456 38 l 460 40 q 553 159 521 81 q 586 342 586 237 q 460 644 586 559 z "},"c":{"ha":635,"x_min":61,"x_max":574,"o":"m 574 219 l 566 195 q 475 51 538 102 q 323 0 412 0 q 132 92 202 0 q 61 342 61 184 q 132 593 61 500 q 323 684 202 684 q 475 633 412 684 q 566 490 538 583 l 572 471 l 463 462 l 459 471 q 323 577 422 577 q 195 492 235 577 q 174 416 181 460 q 169 342 169 382 q 174 269 169 303 q 195 192 181 224 q 323 108 235 108 q 459 213 422 108 l 465 228 l 574 219 z "},"d":{"ha":647,"x_min":61,"x_max":586,"o":"m 323 108 q 195 192 235 108 q 174 269 180 224 q 169 342 169 303 q 174 416 169 382 q 195 492 180 460 q 323 576 235 576 q 450 494 412 576 q 473 418 466 462 q 478 346 478 385 l 478 338 q 473 266 478 300 q 450 191 466 222 q 323 108 412 108 m 478 630 q 460 644 469 637 l 451 650 q 323 684 395 684 q 198 652 254 684 l 197 651 l 192 648 q 187 644 191 647 q 94 525 126 603 q 61 342 61 447 q 187 40 61 125 l 191 38 l 196 35 q 323 0 252 0 q 457 38 399 0 l 460 41 q 482 58 472 48 l 487 0 l 586 0 l 586 973 l 478 982 l 478 630 z "},"e":{"ha":647,"x_min":61,"x_max":586,"o":"m 172 396 q 211 519 180 474 q 323 577 250 577 q 436 519 397 577 q 475 396 467 474 l 172 396 m 586 342 q 515 593 586 500 q 323 684 445 684 q 132 593 202 684 q 61 342 61 500 q 132 92 61 184 q 323 0 202 0 q 487 60 421 0 q 575 230 553 120 l 467 239 q 422 150 452 182 q 323 108 385 108 q 211 165 250 108 q 172 288 180 211 l 586 288 l 586 342 z "},"f":{"ha":484,"x_min":61,"x_max":423,"o":"m 395 979 q 220 898 287 977 q 144 684 153 819 l 70 684 l 61 576 l 142 576 l 142 7 l 222 0 l 250 0 l 250 576 l 323 576 l 332 684 l 252 684 q 288 812 258 764 q 401 871 326 871 l 423 871 l 414 979 l 395 979 z "},"g":{"ha":647,"x_min":61,"x_max":586,"o":"m 323 577 q 450 494 412 577 q 473 419 465 463 q 478 347 478 386 l 478 338 q 473 265 478 299 q 450 191 465 222 q 323 108 412 108 q 195 192 235 108 q 174 269 180 224 q 169 342 169 303 q 174 416 169 382 q 195 492 180 460 q 323 577 235 577 m 482 627 q 460 644 472 636 l 451 650 q 323 684 395 684 q 198 652 254 684 l 197 651 l 192 648 q 187 644 191 648 q 94 525 126 603 q 61 342 61 447 q 187 40 61 125 l 191 38 l 196 35 q 323 0 252 0 q 457 38 399 0 l 460 41 q 478 54 470 47 l 478 17 q 473 -57 478 -22 q 452 -134 467 -101 q 323 -218 413 -218 q 184 -102 219 -218 l 180 -88 l 68 -79 l 75 -107 q 165 -269 100 -211 q 323 -326 230 -326 q 510 -240 440 -326 q 585 -7 580 -155 l 586 -7 l 586 686 l 486 678 l 482 627 z "},"h":{"ha":647,"x_min":61,"x_max":586,"o":"m 460 644 q 455 648 456 647 l 449 652 q 323 684 393 684 q 195 650 252 684 l 186 644 q 169 630 178 637 l 169 980 l 61 989 l 61 0 l 169 0 l 169 345 q 174 417 169 383 q 196 493 181 460 q 323 576 235 576 q 452 492 413 576 q 473 416 467 460 q 478 342 478 382 l 478 0 l 586 0 l 586 342 q 460 644 586 559 z "},"i":{"ha":245,"x_min":61,"x_max":184,"o":"m 69 0 l 176 0 l 176 677 l 69 685 l 69 0 m 123 896 q 79 878 97 896 q 61 834 61 859 q 79 790 61 808 q 123 772 97 772 q 166 790 149 772 q 184 834 184 808 q 166 878 184 859 q 123 896 149 896 z "},"j":{"ha":410,"x_min":61,"x_max":349,"o":"m 233 686 l 233 9 q 227 -63 233 -30 q 206 -137 220 -106 q 82 -218 168 -218 l 61 -218 l 61 -326 l 82 -326 q 271 -235 201 -326 q 340 12 340 -144 l 340 677 l 233 686 m 287 897 q 243 878 261 897 q 225 835 225 861 q 243 791 225 809 q 287 773 261 773 q 330 791 312 773 q 349 835 349 809 q 330 878 349 861 q 287 897 312 897 z "},"k":{"ha":640,"x_min":61,"x_max":579,"o":"m 61 987 l 61 1 l 169 1 l 169 243 l 241 321 l 450 0 l 579 0 l 317 401 l 522 621 l 444 694 l 169 400 l 169 978 l 61 987 z "},"l":{"ha":230,"x_min":61,"x_max":169,"o":"m 61 986 l 61 0 l 169 0 l 169 977 l 61 986 z "},"m":{"ha":1021,"x_min":61,"x_max":960,"o":"m 783 673 l 780 673 l 777 675 q 708 684 745 684 q 640 675 672 684 l 634 673 l 627 670 q 514 564 554 643 q 394 670 470 642 l 387 673 l 381 675 q 313 684 349 684 q 243 675 277 684 l 238 673 l 231 670 q 163 627 193 656 l 159 677 l 61 686 l 61 0 l 169 0 l 169 358 q 176 427 170 395 q 197 498 182 468 q 313 576 233 576 q 433 486 397 576 q 452 408 446 452 q 456 342 456 376 l 456 1 l 564 1 l 564 344 q 569 410 564 378 q 588 486 574 453 q 708 576 624 576 q 829 486 793 576 q 848 408 842 452 q 852 342 852 376 l 852 1 l 960 1 l 960 342 q 916 555 960 469 q 790 670 871 641 l 783 673 z "},"n":{"ha":625,"x_min":61,"x_max":564,"o":"m 387 673 l 381 675 q 313 684 349 684 q 243 675 277 684 l 238 673 l 231 670 q 163 627 193 656 l 159 677 l 61 686 l 61 0 l 169 0 l 169 359 q 175 425 170 394 q 196 496 182 466 q 313 576 233 576 q 433 486 397 576 q 452 408 446 452 q 456 342 456 376 l 456 1 l 564 1 l 564 342 q 519 555 564 469 q 394 670 475 641 l 387 673 z "},"o":{"ha":647,"x_min":61,"x_max":586,"o":"m 323 108 q 195 192 235 108 q 174 269 180 224 q 169 342 169 303 q 174 416 169 382 q 195 492 180 460 q 323 577 235 577 q 452 492 413 577 q 473 416 467 460 q 478 342 478 382 q 473 269 478 303 q 452 192 467 224 q 323 108 413 108 m 323 684 q 132 593 202 684 q 61 342 61 500 q 132 92 61 184 q 323 0 202 0 q 515 92 445 0 q 586 342 586 184 q 515 593 586 500 q 323 684 445 684 z "},"p":{"ha":647,"x_min":61,"x_max":586,"o":"m 323 577 q 452 492 413 577 q 473 416 467 460 q 478 342 478 382 q 473 269 478 303 q 452 193 467 225 q 323 108 413 108 q 196 192 235 108 q 174 268 181 224 q 169 341 169 302 l 169 344 q 174 417 169 382 q 196 493 181 460 q 323 577 235 577 m 456 647 l 451 650 q 323 685 395 685 q 190 647 248 685 l 186 644 q 165 627 175 636 l 160 686 l 61 678 l 61 -304 l 169 -295 l 169 55 q 186 41 178 47 l 196 35 q 323 0 252 0 q 450 33 393 0 l 455 37 q 460 41 456 37 q 553 160 521 82 q 586 342 586 238 q 460 645 586 559 l 456 647 z "},"q":{"ha":694,"x_min":61,"x_max":633,"o":"m 323 108 q 195 192 235 108 q 174 269 180 224 q 169 342 169 303 q 174 416 169 382 q 195 492 180 460 q 323 577 235 577 q 452 492 413 577 q 473 416 467 460 q 478 342 478 382 q 473 269 478 303 q 452 192 467 224 q 323 108 413 108 m 586 -210 l 586 684 l 559 684 l 487 679 l 482 627 q 463 643 473 635 l 461 644 l 458 646 l 457 646 q 323 684 399 684 q 195 650 252 684 l 191 647 l 187 644 q 94 525 126 603 q 61 342 61 447 q 187 40 61 125 q 192 37 191 37 q 198 33 194 35 q 323 0 254 0 q 452 35 395 0 l 460 41 q 478 54 470 47 l 478 -303 l 497 -304 l 564 -310 l 625 -315 l 633 -216 l 600 -212 l 586 -210 z "},"r":{"ha":424,"x_min":61,"x_max":363,"o":"m 313 677 q 243 667 277 677 l 238 666 l 231 663 q 164 621 193 649 l 160 678 l 61 686 l 61 0 l 169 0 l 169 352 q 176 420 170 389 q 197 491 182 461 q 313 570 233 570 q 338 568 326 570 l 363 563 l 363 673 l 345 675 q 313 677 328 677 z "},"s":{"ha":588,"x_min":61,"x_max":527,"o":"m 294 409 q 184 493 184 409 q 294 576 184 576 q 404 493 404 576 l 404 471 l 511 479 l 511 499 q 450 635 509 585 q 294 684 392 684 q 136 632 195 684 q 77 493 77 581 q 136 353 77 406 q 294 302 195 302 q 419 205 419 302 q 294 108 419 108 q 212 125 243 108 q 169 199 171 148 l 168 218 l 61 227 l 61 203 q 125 56 62 111 q 294 0 188 0 q 463 56 400 0 q 527 205 527 111 q 463 353 527 298 q 294 409 400 409 z "},"t":{"ha":407,"x_min":61,"x_max":346,"o":"m 335 107 l 344 0 l 323 0 q 204 39 251 0 q 151 140 157 77 l 149 161 l 149 577 l 61 577 l 70 684 l 149 684 l 149 898 l 257 889 l 257 684 l 346 684 l 337 577 l 257 577 l 257 160 q 268 125 257 138 q 319 108 282 109 l 335 107 z "},"u":{"ha":625,"x_min":61,"x_max":564,"o":"m 456 326 q 450 258 456 290 q 429 186 443 217 q 313 108 392 108 q 192 199 228 108 q 173 276 179 232 q 169 342 169 308 l 169 684 l 61 684 l 61 342 q 106 130 61 216 q 231 14 150 44 l 238 12 l 244 9 q 313 0 277 0 q 382 9 349 0 l 387 12 l 395 14 q 462 58 432 28 l 466 0 l 564 0 l 564 684 l 456 684 l 456 326 z "},"v":{"ha":649,"x_min":61,"x_max":588,"o":"m 478 683 l 325 199 l 171 683 l 61 674 l 275 0 l 374 0 l 588 674 l 478 683 z "},"w":{"ha":985,"x_min":61,"x_max":924,"o":"m 814 684 l 664 212 l 550 682 l 432 673 l 320 212 l 171 683 l 61 674 l 275 0 l 376 0 l 492 479 l 608 0 l 710 0 l 924 675 l 814 684 z "},"x":{"ha":712,"x_min":61,"x_max":651,"o":"m 500 685 l 356 460 l 214 682 l 140 677 l 93 673 l 113 641 l 292 361 l 61 0 l 189 0 l 356 261 l 524 0 l 651 0 l 420 361 l 622 675 l 500 685 z "},"y":{"ha":647,"x_min":61,"x_max":586,"o":"m 478 342 q 473 269 478 303 q 452 192 467 224 q 323 108 413 108 q 195 192 235 108 q 174 269 180 224 q 169 342 169 303 l 169 684 l 61 676 l 61 342 q 187 40 61 125 l 191 38 l 196 35 q 323 0 252 0 q 457 38 399 0 l 460 41 q 478 54 470 47 l 478 14 q 473 -59 478 -25 q 451 -134 466 -102 q 323 -218 412 -218 q 184 -102 220 -218 l 180 -88 l 68 -79 l 75 -107 q 165 -269 100 -211 q 323 -326 230 -326 q 510 -240 440 -326 q 585 -7 580 -155 l 586 -7 l 586 686 l 478 677 l 478 342 z "},"z":{"ha":612,"x_min":61,"x_max":551,"o":"m 104 684 l 96 576 l 408 576 l 61 86 l 61 0 l 542 0 l 551 108 l 208 108 l 551 593 l 551 684 l 104 684 z "},"{":{"ha":460,"x_min":61,"x_max":399,"o":"m 330 1024 l 399 1021 q 280 576 293 811 l 157 538 l 278 500 q 399 3 281 237 l 330 0 l 328 0 q 206 452 219 213 l 90 484 l 61 584 l 210 628 q 328 1024 232 837 l 330 1024 z "},"|":{"ha":193,"x_min":61,"x_max":132,"o":"m 61 1119 l 61 -176 l 132 -176 l 132 1114 l 64 1119 l 61 1119 z "},"}":{"ha":460,"x_min":61,"x_max":399,"o":"m 133 1024 q 250 628 229 837 l 399 584 l 370 484 l 254 452 q 133 0 241 213 l 130 0 l 61 3 q 182 500 179 237 l 304 538 l 180 576 q 61 1021 168 811 l 130 1024 l 133 1024 z "},"~":{"ha":377,"x_min":61,"x_max":316,"o":"m 61 444 q 125 437 90 432 q 189 454 146 440 q 316 464 273 481 l 316 537 q 189 527 273 554 l 157 517 q 125 510 139 512 q 61 517 90 505 l 61 444 z "},"¡":{"ha":279,"x_min":61,"x_max":218,"o":"m 61 0 l 218 7 l 202 857 l 94 848 l 61 0 m 148 1059 q 193 1040 174 1059 q 211 995 211 1021 q 193 950 211 969 q 148 932 174 932 q 103 950 121 932 q 85 995 85 969 q 103 1040 85 1021 q 148 1059 121 1059 z "},"¢":{"ha":616,"x_min":61,"x_max":555,"o":"m 132 490 q 137 567 132 530 q 161 656 144 618 q 318 762 208 762 q 340 761 328 762 l 215 252 q 146 370 166 290 q 134 436 138 401 q 132 490 132 463 m 484 345 q 429 259 464 291 q 318 218 385 218 q 278 222 297 218 l 406 739 q 484 636 458 708 l 555 642 q 423 809 519 764 l 464 975 l 398 981 l 395 981 l 357 829 q 318 832 338 832 q 130 741 199 832 q 61 490 61 648 q 97 298 61 378 q 197 180 132 218 l 153 0 l 222 0 l 261 155 q 318 149 288 149 q 466 198 404 149 q 555 339 528 248 l 484 345 z "},"£":{"ha":706,"x_min":61,"x_max":645,"o":"m 420 766 q 530 718 490 766 q 572 583 570 671 l 645 578 q 584 769 644 699 q 420 840 524 840 q 278 791 336 840 q 202 656 220 742 l 61 45 l 97 0 l 614 0 l 620 73 l 143 73 l 187 266 l 429 285 l 429 358 l 204 340 l 218 402 l 429 419 l 429 492 l 236 477 l 273 641 q 420 766 300 766 z "},"¤":{"ha":644,"x_min":61,"x_max":583,"o":"m 216 380 q 283 341 243 353 q 322 336 302 336 q 361 341 342 336 q 429 380 401 353 q 467 447 456 408 q 473 486 473 467 q 467 526 473 506 q 429 593 456 565 q 361 631 401 620 q 321 637 341 637 q 282 631 302 637 q 216 593 243 619 q 178 526 189 566 q 171 486 171 506 q 177 448 171 467 q 216 380 188 408 m 141 612 l 61 692 l 115 747 l 195 667 q 262 699 225 688 q 323 708 292 708 q 379 700 351 708 q 448 667 418 688 l 528 747 l 583 692 l 503 613 q 536 544 524 582 q 544 486 544 515 q 536 429 544 458 q 503 359 524 391 l 583 280 l 528 225 l 448 305 q 380 273 418 283 q 322 264 351 264 q 264 273 294 264 q 195 305 226 283 l 115 225 l 61 280 l 141 359 q 109 429 119 391 q 100 486 100 458 q 109 545 100 516 q 141 612 120 583 z "},"¥":{"ha":677,"x_min":61,"x_max":616,"o":"m 554 867 l 338 530 l 123 867 l 61 827 l 302 452 l 302 420 l 211 412 l 211 339 l 302 347 l 302 286 l 211 279 l 211 205 l 302 212 l 302 0 l 375 0 l 375 218 l 466 226 l 466 299 l 375 292 l 375 353 l 466 359 l 466 433 l 375 426 l 375 452 l 616 827 l 554 867 z "},"¦":{"ha":216,"x_min":61,"x_max":155,"o":"m 81 1042 l 61 787 l 134 787 l 155 1042 l 81 1042 m 81 153 l 61 -102 l 134 -102 l 155 153 l 81 153 z "},"§":{"ha":603,"x_min":61,"x_max":542,"o":"m 374 447 q 347 446 361 446 q 310 448 328 446 q 271 460 288 452 q 216 526 227 480 q 256 529 235 529 q 291 526 274 529 q 328 515 311 523 q 374 447 369 494 m 347 385 q 490 431 437 385 q 542 553 542 475 q 490 677 542 631 q 347 722 437 722 q 309 726 327 722 q 271 739 287 730 q 227 819 227 763 q 271 897 227 873 q 309 911 287 907 q 347 914 327 914 q 385 911 367 914 q 424 897 407 907 q 467 819 467 873 l 527 823 q 477 934 526 894 q 347 975 429 975 q 215 932 264 975 q 167 819 167 890 q 215 704 167 746 q 347 662 264 662 q 389 658 370 662 q 433 643 414 653 q 481 553 481 616 q 433 465 481 492 q 376 556 422 524 q 256 590 329 590 q 123 547 172 590 q 75 433 75 505 q 123 319 75 361 q 256 277 172 277 q 298 273 278 277 q 341 258 323 268 q 389 169 389 231 q 341 79 389 106 q 298 64 323 69 q 256 60 278 60 q 214 64 233 60 q 172 79 190 68 q 122 163 124 104 l 61 168 q 113 45 61 90 q 256 0 165 0 q 397 45 345 0 q 450 169 450 91 q 397 292 450 247 q 256 337 345 337 q 218 340 235 337 q 179 354 195 345 q 136 433 136 378 q 161 498 136 475 q 226 415 177 445 q 347 385 275 385 z "},"¨":{"ha":461,"x_min":61,"x_max":400,"o":"m 61 859 q 75 827 61 840 q 106 814 87 814 q 138 827 125 814 q 152 859 152 840 q 138 891 152 878 q 106 905 125 905 q 75 891 87 905 q 61 859 61 878 m 309 859 q 322 827 309 840 q 355 814 336 814 q 387 827 374 814 q 400 859 400 840 q 387 891 400 878 q 355 905 374 905 q 322 891 336 905 q 309 859 309 878 z "},"©":{"ha":734,"x_min":61,"x_max":673,"o":"m 367 840 q 186 749 251 840 q 120 486 120 654 q 186 224 120 319 q 367 134 251 134 q 548 224 484 134 q 614 486 614 319 q 548 749 614 654 q 367 840 484 840 m 367 75 q 138 191 220 75 q 61 486 61 300 q 138 783 61 673 q 367 899 220 899 q 596 783 514 899 q 673 486 673 673 q 596 191 673 300 q 367 75 514 75 m 533 376 q 473 281 515 314 q 374 247 431 247 q 248 309 294 247 q 201 477 201 370 q 248 645 201 583 q 374 707 294 707 q 473 673 431 707 q 533 578 515 640 l 532 578 l 485 574 q 449 632 472 611 q 374 659 418 659 q 269 589 300 659 q 252 528 257 563 q 248 477 248 504 q 252 425 248 450 q 269 365 257 391 q 374 294 300 294 q 448 321 418 294 q 485 379 472 342 l 533 376 z "},"ª":{"ha":439,"x_min":0,"x_max":0,"o":""},"«":{"ha":399,"x_min":61,"x_max":338,"o":"m 267 595 l 62 538 l 61 465 l 281 400 l 279 425 l 145 465 l 146 538 l 269 572 l 267 595 m 159 529 l 159 473 l 338 420 l 334 475 l 250 500 l 330 523 l 326 576 l 159 529 z "},"¬":{"ha":692,"x_min":61,"x_max":631,"o":"m 61 520 l 631 520 l 631 187 l 630 186 l 564 186 l 564 452 l 61 452 l 61 520 z "},"®":{"ha":732,"x_min":61,"x_max":671,"o":"m 368 522 q 445 543 418 522 q 471 604 471 565 q 445 665 471 644 q 368 687 418 687 l 275 687 l 275 522 l 368 522 m 231 242 l 231 732 l 368 732 q 477 698 437 732 q 517 604 517 663 q 456 497 517 530 q 468 490 463 493 l 472 487 l 473 486 l 475 484 l 480 480 l 482 478 l 485 475 l 490 469 l 491 469 l 496 460 l 498 458 l 500 454 l 502 452 l 504 448 l 506 443 l 509 435 q 511 429 510 433 l 511 427 l 513 420 l 515 414 l 515 408 l 516 403 q 517 393 517 393 l 517 284 q 526 251 517 266 l 530 243 l 484 243 l 482 245 q 471 284 472 263 l 472 393 l 471 395 l 471 404 l 471 408 l 470 412 l 469 416 l 469 418 l 467 422 l 465 427 l 465 430 l 463 432 l 462 435 l 460 437 l 457 443 l 452 449 l 447 453 l 446 454 l 443 456 q 434 462 440 458 l 431 464 l 428 465 q 419 469 422 468 l 418 469 l 414 471 l 408 472 l 406 473 l 398 474 l 394 475 l 388 475 l 384 476 l 381 476 l 378 476 l 376 476 l 368 477 l 275 477 l 275 242 l 231 242 m 366 839 q 186 748 250 839 q 120 487 120 654 q 186 227 120 319 q 366 136 250 136 q 546 227 482 136 q 612 487 612 319 q 546 748 612 654 q 366 839 482 839 m 366 77 q 138 192 220 77 q 61 487 61 301 q 138 782 61 673 q 366 898 220 898 q 594 782 513 898 q 671 487 671 673 q 594 192 671 301 q 366 77 513 77 z "},"¯":{"ha":454,"x_min":0,"x_max":0,"o":""},"°":{"ha":499,"x_min":61,"x_max":438,"o":"m 250 930 q 150 889 192 930 q 109 789 109 848 q 150 689 109 730 q 250 648 191 648 q 350 689 309 648 q 391 789 391 730 q 350 889 391 848 q 250 930 309 930 m 250 978 q 383 923 328 978 q 438 789 438 867 q 382 656 438 712 q 249 601 327 601 q 115 656 170 601 q 61 789 61 711 q 116 923 61 868 q 250 978 172 978 z "},"±":{"ha":688,"x_min":0,"x_max":0,"o":""},"²":{"ha":688,"x_min":0,"x_max":0,"o":""},"³":{"ha":688,"x_min":0,"x_max":0,"o":""},"´":{"ha":268,"x_min":61,"x_max":207,"o":"m 61 789 l 129 761 l 207 1004 l 139 1032 l 61 789 z "},"µ":{"ha":800,"x_min":0,"x_max":0,"o":""},"¶":{"ha":689,"x_min":61,"x_max":628,"o":"m 628 973 l 628 926 l 542 926 l 542 0 l 486 0 l 486 926 l 374 926 l 374 0 l 317 0 l 317 500 q 130 570 199 506 q 61 736 61 634 q 134 908 61 843 q 328 973 207 973 l 628 973 z "},"·":{"ha":249,"x_min":61,"x_max":188,"o":"m 124 642 q 79 623 98 642 q 61 578 61 605 q 79 534 61 553 q 124 515 98 515 q 169 534 151 515 q 188 578 188 553 q 169 623 188 605 q 124 642 151 642 z "},"∙":{"ha":249,"x_min":61,"x_max":188,"o":"m 124 642 q 79 623 98 642 q 61 578 61 605 q 79 534 61 553 q 124 515 98 515 q 169 534 151 515 q 188 578 188 553 q 169 623 188 605 q 124 642 151 642 z "},"¸":{"ha":391,"x_min":61,"x_max":330,"o":"m 330 -185 q 293 -282 330 -246 q 195 -319 256 -319 q 101 -286 137 -319 q 61 -197 64 -253 l 132 -191 q 195 -248 135 -248 q 259 -185 259 -248 q 195 -122 259 -122 l 160 -87 l 160 2 l 231 2 l 231 -55 q 303 -99 277 -65 q 330 -185 330 -134 z "},"¹":{"ha":688,"x_min":0,"x_max":0,"o":""},"º":{"ha":487,"x_min":0,"x_max":0,"o":""},"»":{"ha":399,"x_min":61,"x_max":338,"o":"m 131 572 l 253 538 l 254 465 l 119 425 l 118 400 l 338 465 l 338 538 l 132 595 l 131 572 m 73 576 l 68 523 l 149 500 l 65 475 l 61 420 l 241 473 l 240 529 l 73 576 z "},"¼":{"ha":1158,"x_min":0,"x_max":0,"o":""},"½":{"ha":1332,"x_min":0,"x_max":0,"o":""},"¾":{"ha":1158,"x_min":0,"x_max":0,"o":""},"¿":{"ha":664,"x_min":61,"x_max":603,"o":"m 387 847 l 387 439 l 332 439 q 170 275 170 439 q 332 109 170 109 q 494 272 492 109 l 494 291 l 603 282 l 603 266 q 528 71 600 142 q 332 0 454 0 q 134 74 207 0 q 61 275 61 147 q 119 456 61 385 q 277 545 177 529 l 277 856 l 387 847 m 332 1058 q 377 1040 358 1058 q 395 995 395 1021 q 377 950 395 968 q 332 931 358 931 q 288 950 306 931 q 269 995 269 968 q 288 1040 269 1021 q 332 1058 306 1058 z "},"À":{"ha":882,"x_min":61,"x_max":821,"o":"m 61 0 l 178 0 l 283 327 l 599 327 l 704 0 l 821 0 l 496 1016 l 389 1025 l 61 0 m 441 821 l 562 441 l 319 441 l 441 821 m 428 1230 l 306 1220 l 409 1078 l 482 1083 l 428 1230 z "},"Á":{"ha":882,"x_min":61,"x_max":821,"o":"m 61 0 l 178 0 l 283 327 l 599 327 l 704 0 l 821 0 l 496 1016 l 389 1025 l 61 0 m 441 821 l 562 441 l 319 441 l 441 821 m 454 1230 l 399 1083 l 473 1078 l 576 1220 l 454 1230 z "},"Â":{"ha":882,"x_min":61,"x_max":821,"o":"m 61 0 l 178 0 l 283 327 l 599 327 l 704 0 l 821 0 l 496 1016 l 389 1025 l 61 0 m 441 821 l 562 441 l 319 441 l 441 821 m 439 1245 l 436 1241 l 435 1238 l 332 1148 l 357 1086 l 441 1154 l 526 1086 l 549 1148 l 448 1238 l 446 1241 l 441 1244 l 441 1244 l 439 1245 z "},"Ã":{"ha":882,"x_min":61,"x_max":821,"o":"m 61 0 l 178 0 l 283 327 l 599 327 l 704 0 l 821 0 l 496 1016 l 389 1025 l 61 0 m 441 821 l 562 441 l 319 441 l 441 821 m 561 1196 q 501 1177 534 1173 q 441 1195 481 1179 l 427 1201 l 412 1206 q 382 1215 395 1213 q 322 1200 349 1219 l 317 1129 l 317 1126 q 376 1145 343 1149 q 436 1128 397 1144 l 451 1122 l 466 1116 q 496 1107 482 1109 q 555 1122 529 1103 l 561 1196 z "},"Ä":{"ha":882,"x_min":61,"x_max":821,"o":"m 61 0 l 178 0 l 283 327 l 599 327 l 704 0 l 821 0 l 496 1016 l 389 1025 l 61 0 m 441 821 l 562 441 l 319 441 l 441 821 m 519 1204 q 489 1191 501 1204 q 476 1161 476 1179 q 489 1131 476 1143 q 519 1119 501 1119 q 549 1131 536 1119 q 562 1161 562 1143 q 549 1191 562 1179 q 519 1204 536 1204 m 359 1204 q 329 1191 341 1204 q 317 1161 317 1179 q 329 1131 317 1143 q 359 1119 341 1119 q 389 1131 376 1119 q 401 1161 401 1143 q 389 1191 401 1179 q 359 1204 376 1204 z "},"Å":{"ha":882,"x_min":61,"x_max":821,"o":"m 61 0 l 178 0 l 283 327 l 599 327 l 704 0 l 821 0 l 496 1016 l 389 1025 l 61 0 m 441 821 l 562 441 l 319 441 l 441 821 m 441 1120 q 417 1130 427 1120 q 408 1154 408 1139 q 417 1177 408 1167 q 441 1187 427 1187 q 465 1177 454 1187 q 474 1154 474 1167 q 465 1130 474 1139 q 441 1120 454 1120 m 516 1154 q 494 1206 516 1185 q 441 1228 472 1228 q 388 1206 410 1228 q 366 1154 366 1185 q 388 1101 366 1122 q 441 1078 410 1078 q 494 1101 472 1078 q 516 1154 516 1122 z "},"Æ":{"ha":1042,"x_min":61,"x_max":981,"o":"m 389 1025 l 61 1 l 178 1 l 283 328 l 389 328 l 389 0 l 969 0 l 969 115 l 504 115 l 504 459 l 935 459 l 944 574 l 504 574 l 504 910 l 971 910 l 981 1025 l 389 1025 m 389 660 l 389 442 l 319 442 l 389 660 z "},"Ç":{"ha":872,"x_min":61,"x_max":811,"o":"m 694 318 l 689 302 q 448 113 625 113 q 251 212 321 113 q 176 511 176 318 q 251 810 176 704 q 448 909 321 909 q 689 721 625 909 l 694 705 l 811 713 l 803 740 q 669 950 761 877 q 448 1023 578 1023 q 157 876 262 1023 q 61 511 61 741 q 157 146 61 282 q 418 0 252 12 l 418 -53 l 461 -96 q 539 -173 539 -96 q 461 -250 539 -250 q 383 -181 387 -250 l 297 -188 q 346 -296 302 -256 q 461 -336 390 -336 q 581 -292 536 -336 q 625 -173 625 -248 q 593 -68 625 -111 q 505 -14 561 -26 l 505 3 q 689 90 612 18 q 803 282 766 161 l 811 309 l 694 318 z "},"È":{"ha":713,"x_min":61,"x_max":652,"o":"m 61 1025 l 61 0 l 642 0 l 642 115 l 176 115 l 176 459 l 607 459 l 616 574 l 176 574 l 176 910 l 643 910 l 652 1025 l 61 1025 m 344 1230 l 222 1220 l 325 1078 l 398 1084 l 344 1230 z "},"É":{"ha":713,"x_min":61,"x_max":652,"o":"m 61 1025 l 61 0 l 642 0 l 642 115 l 176 115 l 176 459 l 607 459 l 616 574 l 176 574 l 176 910 l 643 910 l 652 1025 l 61 1025 m 370 1230 l 315 1084 l 389 1078 l 492 1220 l 370 1230 z "},"Ê":{"ha":713,"x_min":61,"x_max":652,"o":"m 61 1025 l 61 0 l 642 0 l 642 115 l 176 115 l 176 459 l 607 459 l 616 574 l 176 574 l 176 910 l 643 910 l 652 1025 l 61 1025 m 355 1245 l 352 1241 l 351 1239 l 248 1148 l 272 1086 l 357 1154 l 441 1086 l 465 1148 l 363 1238 l 361 1241 l 357 1245 l 357 1244 l 355 1245 z "},"Ë":{"ha":713,"x_min":61,"x_max":652,"o":"m 61 1025 l 61 0 l 642 0 l 642 115 l 176 115 l 176 459 l 607 459 l 616 574 l 176 574 l 176 910 l 643 910 l 652 1025 l 61 1025 m 435 1204 q 405 1192 417 1204 q 392 1162 392 1179 q 405 1132 392 1144 q 435 1119 417 1119 q 465 1132 452 1119 q 477 1162 477 1144 q 465 1192 477 1179 q 435 1204 452 1204 m 275 1204 q 245 1192 257 1204 q 232 1162 232 1179 q 245 1132 232 1144 q 275 1119 257 1119 q 304 1132 292 1119 q 317 1162 317 1144 q 304 1192 317 1179 q 275 1204 292 1204 z "},"Ì":{"ha":314,"x_min":61,"x_max":253,"o":"m 138 0 l 253 0 l 253 1015 l 138 1025 l 138 0 m 183 1230 l 61 1220 l 164 1078 l 237 1084 l 183 1230 z "},"Í":{"ha":314,"x_min":61,"x_max":253,"o":"m 61 0 l 176 0 l 176 1015 l 61 1025 l 61 0 m 131 1230 l 77 1084 l 150 1078 l 253 1220 l 131 1230 z "},"Î":{"ha":339,"x_min":61,"x_max":278,"o":"m 113 0 l 227 0 l 227 1015 l 113 1025 l 113 0 m 168 1245 l 165 1241 l 163 1238 l 61 1148 l 85 1086 l 170 1154 l 254 1086 l 278 1148 l 176 1238 l 174 1241 l 170 1244 l 170 1244 l 168 1245 z "},"Ï":{"ha":367,"x_min":61,"x_max":306,"o":"m 128 0 l 243 0 l 243 1015 l 128 1025 l 128 0 m 264 1204 q 233 1192 246 1204 q 221 1161 221 1179 q 233 1131 221 1143 q 264 1119 246 1119 q 294 1131 281 1119 q 306 1161 306 1143 q 294 1192 306 1179 q 264 1204 281 1204 m 104 1204 q 73 1192 86 1204 q 61 1161 61 1179 q 73 1131 61 1143 q 104 1119 86 1119 q 134 1131 121 1119 q 146 1161 146 1143 q 134 1192 146 1179 q 104 1204 121 1204 z "},"Ð":{"ha":930,"x_min":61,"x_max":869,"o":"m 679 214 q 482 115 609 115 l 277 115 l 277 481 l 370 481 l 370 545 l 277 545 l 277 910 l 482 910 q 679 811 609 910 q 754 513 754 705 q 679 214 754 319 m 772 878 q 482 1025 668 1025 l 163 1025 l 163 545 l 66 545 l 61 481 l 163 481 l 163 0 l 482 0 q 772 147 668 0 q 869 513 869 283 q 772 878 869 742 z "},"Ñ":{"ha":709,"x_min":61,"x_max":648,"o":"m 475 1196 q 415 1177 448 1173 q 355 1195 395 1179 l 340 1201 l 326 1206 q 296 1215 309 1213 q 236 1200 262 1219 l 231 1129 l 231 1126 q 290 1145 257 1149 q 350 1128 311 1144 l 365 1122 l 380 1116 q 410 1107 396 1109 q 469 1122 443 1103 l 475 1196 m 648 1013 l 648 0 l 542 0 l 176 760 l 176 0 l 61 0 l 61 1025 l 172 1015 l 534 265 l 534 1023 l 648 1013 z "},"Ò":{"ha":895,"x_min":61,"x_max":834,"o":"m 435 1230 l 313 1220 l 416 1078 l 489 1084 l 435 1230 m 448 910 q 251 811 321 910 q 176 513 176 705 q 251 214 176 319 q 448 115 321 115 q 644 214 574 115 q 720 513 720 319 q 644 811 720 705 q 448 910 574 910 m 448 0 q 157 147 262 0 q 61 513 61 283 q 157 878 61 742 q 448 1025 262 1025 q 738 878 633 1025 q 834 513 834 742 q 738 147 834 283 q 448 0 633 0 z "},"Ó":{"ha":895,"x_min":61,"x_max":834,"o":"m 460 1230 l 406 1084 l 479 1078 l 583 1220 l 460 1230 m 448 910 q 251 811 321 910 q 176 513 176 705 q 251 214 176 319 q 448 115 321 115 q 644 214 574 115 q 720 513 720 319 q 644 811 720 705 q 448 910 574 910 m 448 0 q 157 147 262 0 q 61 513 61 283 q 157 878 61 742 q 448 1025 262 1025 q 738 878 633 1025 q 834 513 834 742 q 738 147 834 283 q 448 0 633 0 z "},"Ô":{"ha":895,"x_min":61,"x_max":834,"o":"m 446 1246 l 443 1241 l 441 1239 l 339 1148 l 363 1086 l 448 1154 l 532 1086 l 556 1148 l 454 1238 l 452 1242 l 448 1245 l 448 1244 l 446 1246 m 448 910 q 251 811 321 910 q 176 513 176 705 q 251 214 176 319 q 448 115 321 115 q 644 214 574 115 q 720 513 720 319 q 644 811 720 705 q 448 910 574 910 m 448 0 q 157 147 262 0 q 61 513 61 283 q 157 878 61 742 q 448 1025 262 1025 q 738 878 633 1025 q 834 513 834 742 q 738 147 834 283 q 448 0 633 0 z "},"Õ":{"ha":895,"x_min":61,"x_max":834,"o":"m 568 1196 q 508 1177 541 1174 q 448 1196 488 1179 l 433 1202 l 418 1207 q 389 1215 402 1213 q 329 1201 355 1220 l 323 1130 l 323 1127 q 383 1146 350 1149 q 443 1128 404 1144 l 458 1122 l 473 1116 q 503 1108 489 1110 q 562 1122 536 1103 l 568 1196 m 448 910 q 251 811 321 910 q 176 513 176 705 q 251 214 176 319 q 448 115 321 115 q 644 214 574 115 q 720 513 720 319 q 644 811 720 705 q 448 910 574 910 m 448 0 q 157 147 262 0 q 61 513 61 283 q 157 878 61 742 q 448 1025 262 1025 q 738 878 633 1025 q 834 513 834 742 q 738 147 834 283 q 448 0 633 0 z "},"Ö":{"ha":895,"x_min":61,"x_max":834,"o":"m 526 1204 q 496 1192 508 1204 q 483 1162 483 1179 q 496 1132 483 1144 q 526 1119 508 1119 q 555 1132 543 1119 q 568 1162 568 1144 q 555 1192 568 1179 q 526 1204 543 1204 m 366 1204 q 336 1192 348 1204 q 323 1162 323 1179 q 336 1132 323 1144 q 366 1119 348 1119 q 395 1132 383 1119 q 408 1162 408 1144 q 395 1192 408 1179 q 366 1204 383 1204 m 448 910 q 251 811 321 910 q 176 513 176 705 q 251 214 176 319 q 448 115 321 115 q 644 214 574 115 q 720 513 720 319 q 644 811 720 705 q 448 910 574 910 m 448 0 q 157 147 262 0 q 61 513 61 283 q 157 878 61 742 q 448 1025 262 1025 q 738 878 633 1025 q 834 513 834 742 q 738 147 834 283 q 448 0 633 0 z "},"×":{"ha":369,"x_min":61,"x_max":308,"o":"m 256 639 l 308 587 l 236 526 l 293 458 l 241 407 l 180 478 l 113 421 l 61 473 l 133 534 l 75 602 l 127 653 l 189 581 l 256 639 z "},"Ø":{"ha":895,"x_min":61,"x_max":834,"o":"m 448 909 q 251 811 321 909 q 176 512 176 705 q 251 213 176 319 q 448 114 321 114 q 644 213 574 114 q 720 512 720 319 q 644 811 720 705 q 448 909 574 909 m 448 -1 q 157 146 262 -1 q 61 512 61 282 q 157 877 61 741 q 448 1024 262 1024 q 738 877 633 1024 q 834 512 834 741 q 738 146 834 282 q 448 -1 633 -1 m 616 1109 l 389 -95 l 274 -95 l 503 1119 l 616 1109 z "},"Ù":{"ha":815,"x_min":61,"x_max":754,"o":"m 408 0 q 154 104 248 0 q 61 385 61 207 l 61 1026 l 176 1017 l 176 385 q 235 184 176 254 q 408 115 296 115 q 580 184 520 115 q 640 385 640 254 l 640 1025 l 754 1017 l 754 385 q 661 104 754 207 q 408 0 568 0 m 273 1221 l 395 1231 l 449 1085 l 376 1079 l 273 1221 z "},"Ú":{"ha":815,"x_min":61,"x_max":754,"o":"m 408 0 q 154 104 248 0 q 61 385 61 207 l 61 1026 l 176 1017 l 176 385 q 235 184 176 254 q 408 115 296 115 q 580 184 520 115 q 640 385 640 254 l 640 1025 l 754 1017 l 754 385 q 661 104 754 207 q 408 0 568 0 m 366 1085 l 420 1231 l 543 1221 l 439 1079 l 366 1085 z "},"Û":{"ha":815,"x_min":61,"x_max":754,"o":"m 408 0 q 154 104 248 0 q 61 385 61 207 l 61 1026 l 176 1017 l 176 385 q 235 184 176 254 q 408 115 296 115 q 580 184 520 115 q 640 385 640 254 l 640 1025 l 754 1017 l 754 385 q 661 104 754 207 q 408 0 568 0 m 408 1156 l 323 1088 l 299 1149 l 401 1240 l 403 1242 l 406 1246 l 408 1245 l 408 1246 l 412 1242 l 414 1239 l 516 1149 l 492 1088 l 408 1156 z "},"Ü":{"ha":815,"x_min":61,"x_max":754,"o":"m 408 0 q 154 104 248 0 q 61 385 61 207 l 61 1026 l 176 1017 l 176 385 q 235 184 176 254 q 408 115 296 115 q 580 184 520 115 q 640 385 640 254 l 640 1025 l 754 1017 l 754 385 q 661 104 754 207 q 408 0 568 0 m 486 1205 q 456 1193 468 1205 q 444 1162 444 1180 q 456 1133 444 1145 q 486 1120 468 1120 q 515 1133 503 1120 q 528 1162 528 1145 q 515 1193 528 1180 q 486 1205 503 1205 m 326 1205 q 296 1193 308 1205 q 283 1162 283 1180 q 296 1133 283 1145 q 326 1120 308 1120 q 355 1133 343 1120 q 368 1162 368 1145 q 355 1193 368 1180 q 326 1205 343 1205 z "},"Ý":{"ha":870,"x_min":61,"x_max":809,"o":"m 434 646 l 191 1026 l 61 1016 l 376 524 l 376 0 l 491 0 l 491 524 l 809 1019 l 680 1030 l 434 646 m 448 1235 l 393 1089 l 467 1083 l 570 1225 l 448 1235 z "},"Þ":{"ha":538,"x_min":61,"x_max":477,"o":"m 111 218 l 111 761 l 117 761 q 347 690 265 761 q 427 490 427 619 q 347 290 427 360 q 117 218 265 218 l 111 218 m 111 810 l 111 975 l 61 979 l 61 0 l 111 0 l 111 170 l 117 170 q 380 256 283 170 q 477 490 477 341 q 380 724 477 638 q 117 810 283 810 l 111 810 z "},"ß":{"ha":767,"x_min":61,"x_max":706,"o":"m 61 9 l 61 709 q 137 979 61 880 q 343 1078 213 1078 q 580 1003 493 1078 q 667 799 667 928 q 561 580 667 656 q 706 323 706 500 q 610 100 706 182 q 351 18 515 18 l 269 18 l 277 127 l 351 127 q 533 178 470 127 q 597 323 597 229 q 533 469 597 418 q 351 519 470 519 l 273 519 l 281 629 l 343 629 q 503 672 447 629 q 558 799 558 716 q 503 925 558 881 q 343 969 447 969 q 198 868 241 969 q 175 783 182 831 q 170 709 170 747 l 170 0 l 61 9 z "},"à":{"ha":647,"x_min":61,"x_max":586,"o":"m 311 891 l 189 882 l 292 739 l 365 745 l 311 891 m 323 577 q 452 492 413 577 q 473 416 467 460 q 478 342 478 381 q 473 269 478 302 q 452 192 467 224 q 323 108 413 108 q 195 192 235 108 q 174 269 180 224 q 169 342 169 303 q 174 416 169 382 q 195 492 180 460 q 323 577 235 577 m 482 627 q 460 644 472 636 l 451 650 q 323 684 395 684 q 198 652 254 684 l 197 651 l 192 648 q 187 644 191 647 q 94 525 126 603 q 61 342 61 447 q 187 40 61 125 l 191 38 l 196 35 q 323 0 252 0 q 457 38 399 0 l 460 41 q 482 58 472 48 l 487 0 l 586 0 l 586 686 l 486 678 l 482 627 z "},"á":{"ha":647,"x_min":61,"x_max":586,"o":"m 336 891 l 282 745 l 355 739 l 458 882 l 336 891 m 323 577 q 452 492 413 577 q 473 416 467 460 q 478 342 478 381 q 473 269 478 302 q 452 192 467 224 q 323 108 413 108 q 195 192 235 108 q 174 269 180 224 q 169 342 169 303 q 174 416 169 382 q 195 492 180 460 q 323 577 235 577 m 482 627 q 460 644 472 636 l 451 650 q 323 684 395 684 q 198 652 254 684 l 197 651 l 192 648 q 187 644 191 647 q 94 525 126 603 q 61 342 61 447 q 187 40 61 125 l 191 38 l 196 35 q 323 0 252 0 q 457 38 399 0 l 460 41 q 482 58 472 48 l 487 0 l 586 0 l 586 686 l 486 678 l 482 627 z "},"â":{"ha":647,"x_min":61,"x_max":586,"o":"m 321 907 l 319 903 l 317 900 l 215 810 l 239 747 l 323 815 l 408 747 l 432 810 l 330 899 l 328 903 l 324 906 l 323 905 l 321 907 m 323 577 q 452 492 413 577 q 473 416 467 460 q 478 342 478 381 q 473 269 478 302 q 452 192 467 224 q 323 108 413 108 q 195 192 235 108 q 174 269 180 224 q 169 342 169 303 q 174 416 169 382 q 195 492 180 460 q 323 577 235 577 m 482 627 q 460 644 472 636 l 451 650 q 323 684 395 684 q 198 652 254 684 l 197 651 l 192 648 q 187 644 191 647 q 94 525 126 603 q 61 342 61 447 q 187 40 61 125 l 191 38 l 196 35 q 323 0 252 0 q 457 38 399 0 l 460 41 q 482 58 472 48 l 487 0 l 586 0 l 586 686 l 486 678 l 482 627 z "},"ã":{"ha":647,"x_min":61,"x_max":586,"o":"m 444 857 q 384 838 417 835 q 324 857 363 840 l 309 863 l 294 868 q 264 876 278 874 q 205 862 231 881 l 199 791 l 199 788 q 259 807 226 810 q 319 789 280 806 l 334 783 l 349 777 q 378 769 365 771 q 437 783 412 764 l 444 857 m 323 577 q 452 492 413 577 q 473 416 467 460 q 478 342 478 381 q 473 269 478 302 q 452 192 467 224 q 323 108 413 108 q 195 192 235 108 q 174 269 180 224 q 169 342 169 303 q 174 416 169 382 q 195 492 180 460 q 323 577 235 577 m 482 627 q 460 644 472 636 l 451 650 q 323 684 395 684 q 198 652 254 684 l 197 651 l 192 648 q 187 644 191 647 q 94 525 126 603 q 61 342 61 447 q 187 40 61 125 l 191 38 l 196 35 q 323 0 252 0 q 457 38 399 0 l 460 41 q 482 58 472 48 l 487 0 l 586 0 l 586 686 l 486 678 l 482 627 z "},"ä":{"ha":647,"x_min":61,"x_max":586,"o":"m 401 865 q 372 852 384 865 q 359 823 359 840 q 372 793 359 805 q 401 781 384 781 q 431 793 419 781 q 444 823 444 805 q 431 852 444 840 q 401 865 419 865 m 241 865 q 212 852 224 865 q 199 823 199 840 q 212 793 199 805 q 241 781 224 781 q 271 793 259 781 q 284 823 284 805 q 271 852 284 840 q 241 865 259 865 m 323 577 q 452 492 413 577 q 473 416 467 460 q 478 342 478 381 q 473 269 478 302 q 452 192 467 224 q 323 108 413 108 q 195 192 235 108 q 174 269 180 224 q 169 342 169 303 q 174 416 169 382 q 195 492 180 460 q 323 577 235 577 m 482 627 q 460 644 472 636 l 451 650 q 323 684 395 684 q 198 652 254 684 l 197 651 l 192 648 q 187 644 191 647 q 94 525 126 603 q 61 342 61 447 q 187 40 61 125 l 191 38 l 196 35 q 323 0 252 0 q 457 38 399 0 l 460 41 q 482 58 472 48 l 487 0 l 586 0 l 586 686 l 486 678 l 482 627 z "},"å":{"ha":647,"x_min":61,"x_max":586,"o":"m 323 782 q 300 791 310 782 q 290 815 290 801 q 300 838 290 829 q 323 848 310 848 q 347 838 337 848 q 357 815 357 829 q 347 791 357 801 q 323 782 337 782 m 399 815 q 376 868 399 846 q 323 890 355 890 q 271 868 292 890 q 248 815 248 846 q 271 762 248 784 q 323 740 292 740 q 376 762 355 740 q 399 815 399 784 m 323 577 q 452 492 413 577 q 473 416 467 460 q 478 342 478 381 q 473 269 478 302 q 452 192 467 224 q 323 108 413 108 q 195 192 235 108 q 174 269 180 224 q 169 342 169 303 q 174 416 169 382 q 195 492 180 460 q 323 577 235 577 m 482 627 q 460 644 472 636 l 451 650 q 323 684 395 684 q 198 652 254 684 l 197 651 l 192 648 q 187 644 191 647 q 94 525 126 603 q 61 342 61 447 q 187 40 61 125 l 191 38 l 196 35 q 323 0 252 0 q 457 38 399 0 l 460 41 q 482 58 472 48 l 487 0 l 586 0 l 586 686 l 486 678 l 482 627 z "},"æ":{"ha":1065,"x_min":61,"x_max":1004,"o":"m 589 397 q 629 520 597 475 q 741 578 668 578 q 854 520 814 578 q 893 397 884 475 l 589 397 m 323 108 q 195 192 234 108 q 174 269 180 224 q 169 342 169 303 q 174 416 169 382 q 195 492 180 460 q 323 577 234 577 q 452 492 413 577 q 473 416 467 460 q 478 342 478 381 q 473 269 478 302 q 452 192 467 224 q 323 108 412 108 m 1004 343 q 933 593 1004 501 q 741 685 863 685 q 586 632 650 685 l 586 686 l 486 678 l 482 627 q 460 644 472 636 l 451 650 q 323 684 395 684 q 198 652 254 684 l 197 651 l 192 648 q 187 644 191 647 q 94 525 126 603 q 61 342 61 447 q 187 40 61 125 l 191 38 l 196 35 q 323 0 252 0 q 457 38 399 0 l 460 41 q 482 58 472 48 l 487 0 l 586 0 l 586 54 q 741 1 650 1 q 905 61 839 1 q 993 231 970 121 l 884 239 q 840 151 870 183 q 741 109 802 109 q 629 166 668 109 q 589 289 597 212 l 1004 289 l 1004 343 z "},"ç":{"ha":635,"x_min":61,"x_max":574,"o":"m 465 227 l 459 212 q 323 107 422 107 q 195 191 235 107 q 174 268 181 224 q 169 341 169 302 q 174 415 169 380 q 195 492 181 459 q 323 576 235 576 q 459 471 422 576 l 463 461 l 572 470 l 566 490 q 475 633 538 582 q 323 684 412 684 q 132 592 202 684 q 61 341 61 500 q 118 111 61 201 q 274 4 174 22 l 274 -62 l 317 -106 q 395 -182 395 -106 q 317 -260 395 -260 q 239 -191 243 -260 l 153 -197 q 202 -306 158 -266 q 317 -346 246 -346 q 437 -301 392 -346 q 481 -182 481 -257 q 449 -78 481 -120 q 360 -24 417 -36 l 360 2 q 488 62 435 12 q 566 193 542 111 l 574 218 l 465 227 z "},"è":{"ha":647,"x_min":61,"x_max":586,"o":"m 172 396 q 211 519 180 474 q 323 577 250 577 q 436 519 397 577 q 475 396 467 474 l 172 396 m 586 342 q 515 593 586 500 q 323 684 445 684 q 132 593 202 684 q 61 342 61 500 q 132 92 61 184 q 323 0 202 0 q 487 60 421 0 q 575 230 553 120 l 467 239 q 422 150 452 182 q 323 108 385 108 q 211 165 250 108 q 172 288 180 211 l 586 288 l 586 342 m 189 880 l 311 890 l 365 743 l 292 737 l 189 880 z "},"é":{"ha":647,"x_min":61,"x_max":586,"o":"m 172 396 q 211 519 180 474 q 323 577 250 577 q 436 519 397 577 q 475 396 467 474 l 172 396 m 586 342 q 515 593 586 500 q 323 684 445 684 q 132 593 202 684 q 61 342 61 500 q 132 92 61 184 q 323 0 202 0 q 487 60 421 0 q 575 230 553 120 l 467 239 q 422 150 452 182 q 323 108 385 108 q 211 165 250 108 q 172 288 180 211 l 586 288 l 586 342 m 282 743 l 336 890 l 458 880 l 355 737 l 282 743 z "},"ê":{"ha":647,"x_min":61,"x_max":586,"o":"m 172 396 q 211 519 180 474 q 323 577 250 577 q 436 519 397 577 q 475 396 467 474 l 172 396 m 586 342 q 515 593 586 500 q 323 684 445 684 q 132 593 202 684 q 61 342 61 500 q 132 92 61 184 q 323 0 202 0 q 487 60 421 0 q 575 230 553 120 l 467 239 q 422 150 452 182 q 323 108 385 108 q 211 165 250 108 q 172 288 180 211 l 586 288 l 586 342 m 323 814 l 239 746 l 215 808 l 317 899 l 319 901 l 321 905 l 323 903 l 324 905 l 328 901 l 330 897 l 432 808 l 408 746 l 323 814 z "},"ë":{"ha":647,"x_min":61,"x_max":586,"o":"m 172 396 q 211 519 180 474 q 323 577 250 577 q 436 519 397 577 q 475 396 467 474 l 172 396 m 586 342 q 515 593 586 500 q 323 684 445 684 q 132 593 202 684 q 61 342 61 500 q 132 92 61 184 q 323 0 202 0 q 487 60 421 0 q 575 230 553 120 l 467 239 q 422 150 452 182 q 323 108 385 108 q 211 165 250 108 q 172 288 180 211 l 586 288 l 586 342 m 401 863 q 372 851 384 863 q 359 821 359 839 q 372 791 359 804 q 401 779 384 779 q 431 791 419 779 q 444 821 444 804 q 431 851 444 839 q 401 863 419 863 m 241 863 q 212 851 224 863 q 199 821 199 839 q 212 791 199 804 q 241 779 224 779 q 271 791 259 779 q 284 821 284 804 q 271 851 284 839 q 241 863 259 863 z "},"ì":{"ha":311,"x_min":61,"x_max":250,"o":"m 183 891 l 61 881 l 164 739 l 237 745 l 183 891 m 142 0 l 250 0 l 250 677 l 142 685 l 142 0 z "},"í":{"ha":311,"x_min":61,"x_max":250,"o":"m 127 891 l 73 745 l 146 739 l 250 881 l 127 891 m 61 0 l 169 0 l 169 677 l 61 685 l 61 0 z "},"î":{"ha":339,"x_min":61,"x_max":278,"o":"m 168 907 l 165 902 l 163 900 l 61 809 l 85 747 l 170 815 l 254 747 l 278 809 l 176 899 l 174 902 l 170 906 l 170 905 l 168 907 m 116 0 l 224 0 l 224 677 l 116 685 l 116 0 z "},"ï":{"ha":367,"x_min":61,"x_max":306,"o":"m 264 865 q 233 852 246 865 q 221 823 221 840 q 233 793 221 805 q 264 780 246 780 q 294 793 281 780 q 306 823 306 805 q 294 852 306 840 q 264 865 281 865 m 104 865 q 73 852 86 865 q 61 823 61 840 q 73 793 61 805 q 104 780 86 780 q 134 793 121 780 q 146 823 146 805 q 134 852 146 840 q 104 865 121 865 m 132 0 l 239 0 l 239 677 l 132 685 l 132 0 z "},"ð":{"ha":610,"x_min":61,"x_max":549,"o":"m 434 251 q 416 184 429 212 q 304 110 382 110 q 194 184 228 110 q 176 251 181 213 q 171 316 171 281 q 176 380 171 351 q 194 448 181 419 q 304 522 228 522 q 416 448 382 522 q 434 380 429 419 q 439 316 439 351 q 434 251 439 281 m 429 798 q 89 979 305 971 l 65 980 l 73 870 l 92 869 q 245 823 180 865 l 185 770 l 205 720 l 291 789 q 338 734 316 766 q 399 613 375 684 q 304 632 356 632 q 127 547 192 632 q 61 316 61 462 q 127 85 61 170 q 304 0 192 0 q 483 85 418 0 q 549 316 549 170 l 549 338 q 429 798 549 628 z "},"ñ":{"ha":625,"x_min":61,"x_max":564,"o":"m 387 673 l 381 675 q 313 684 349 684 q 243 675 277 684 l 238 673 l 231 670 q 163 627 193 656 l 159 677 l 61 686 l 61 0 l 169 0 l 169 359 q 175 425 170 394 q 196 496 182 466 q 313 576 233 576 q 433 486 397 576 q 452 408 446 452 q 456 342 456 376 l 456 1 l 564 1 l 564 342 q 519 555 564 469 q 394 670 475 641 l 387 673 m 433 857 q 373 838 406 835 q 313 856 353 840 l 298 862 l 283 868 q 254 876 267 873 q 194 861 220 880 l 189 791 l 189 787 q 248 807 215 810 q 308 789 269 805 l 323 783 l 338 777 q 368 769 354 771 q 427 783 401 764 l 433 857 z "},"ò":{"ha":647,"x_min":61,"x_max":586,"o":"m 323 108 q 195 192 235 108 q 174 269 180 224 q 169 342 169 303 q 174 416 169 382 q 195 492 180 460 q 323 577 235 577 q 452 492 413 577 q 473 416 467 460 q 478 342 478 382 q 473 269 478 303 q 452 192 467 224 q 323 108 413 108 m 323 684 q 132 593 202 684 q 61 342 61 500 q 132 92 61 184 q 323 0 202 0 q 515 92 445 0 q 586 342 586 184 q 515 593 586 500 q 323 684 445 684 m 189 880 l 311 890 l 365 743 l 292 737 l 189 880 z "},"ó":{"ha":647,"x_min":61,"x_max":586,"o":"m 323 108 q 195 192 235 108 q 174 269 180 224 q 169 342 169 303 q 174 416 169 382 q 195 492 180 460 q 323 577 235 577 q 452 492 413 577 q 473 416 467 460 q 478 342 478 382 q 473 269 478 303 q 452 192 467 224 q 323 108 413 108 m 323 684 q 132 593 202 684 q 61 342 61 500 q 132 92 61 184 q 323 0 202 0 q 515 92 445 0 q 586 342 586 184 q 515 593 586 500 q 323 684 445 684 m 282 743 l 336 890 l 458 880 l 355 737 l 282 743 z "},"ô":{"ha":647,"x_min":61,"x_max":586,"o":"m 323 108 q 195 192 235 108 q 174 269 180 224 q 169 342 169 303 q 174 416 169 382 q 195 492 180 460 q 323 577 235 577 q 452 492 413 577 q 473 416 467 460 q 478 342 478 382 q 473 269 478 303 q 452 192 467 224 q 323 108 413 108 m 323 684 q 132 593 202 684 q 61 342 61 500 q 132 92 61 184 q 323 0 202 0 q 515 92 445 0 q 586 342 586 184 q 515 593 586 500 q 323 684 445 684 m 323 814 l 239 746 l 215 808 l 317 899 l 319 901 l 321 905 l 323 903 l 324 905 l 328 901 l 330 897 l 432 808 l 408 746 l 323 814 z "},"õ":{"ha":647,"x_min":61,"x_max":586,"o":"m 323 108 q 195 192 235 108 q 174 269 180 224 q 169 342 169 303 q 174 416 169 382 q 195 492 180 460 q 323 577 235 577 q 452 492 413 577 q 473 416 467 460 q 478 342 478 382 q 473 269 478 303 q 452 192 467 224 q 323 108 413 108 m 323 684 q 132 593 202 684 q 61 342 61 500 q 132 92 61 184 q 323 0 202 0 q 515 92 445 0 q 586 342 586 184 q 515 593 586 500 q 323 684 445 684 m 444 856 q 384 837 417 833 q 324 855 363 839 l 309 861 l 294 867 q 264 875 278 873 q 205 861 231 880 l 199 789 l 199 786 q 259 806 226 808 q 319 787 280 804 l 334 781 l 349 776 q 378 768 365 770 q 437 781 412 763 l 444 856 z "},"ö":{"ha":647,"x_min":61,"x_max":586,"o":"m 323 108 q 195 192 235 108 q 174 269 180 224 q 169 342 169 303 q 174 416 169 382 q 195 492 180 460 q 323 577 235 577 q 452 492 413 577 q 473 416 467 460 q 478 342 478 382 q 473 269 478 303 q 452 192 467 224 q 323 108 413 108 m 323 684 q 132 593 202 684 q 61 342 61 500 q 132 92 61 184 q 323 0 202 0 q 515 92 445 0 q 586 342 586 184 q 515 593 586 500 q 323 684 445 684 m 401 863 q 372 851 384 863 q 359 821 359 839 q 372 791 359 804 q 401 779 384 779 q 431 791 419 779 q 444 821 444 804 q 431 851 444 839 q 401 863 419 863 m 241 863 q 212 851 224 863 q 199 821 199 839 q 212 791 199 804 q 241 779 224 779 q 271 791 259 779 q 284 821 284 804 q 271 851 284 839 q 241 863 259 863 z "},"÷":{"ha":377,"x_min":61,"x_max":316,"o":"m 61 517 l 61 444 l 316 464 l 316 537 l 61 517 m 189 663 q 157 649 170 663 q 143 617 143 635 q 157 585 143 598 q 189 572 170 572 q 220 585 208 572 q 234 617 234 598 q 220 649 234 635 q 189 663 208 663 m 189 409 q 157 396 170 409 q 143 363 143 382 q 157 332 143 345 q 189 318 170 318 q 220 332 208 318 q 234 363 234 345 q 220 396 234 382 q 189 409 208 409 z "},"ø":{"ha":647,"x_min":61,"x_max":586,"o":"m 323 108 q 195 192 235 108 q 174 269 180 224 q 169 342 169 302 q 174 416 169 381 q 195 492 180 460 q 323 576 235 576 q 452 492 413 576 q 473 416 467 460 q 478 342 478 381 q 473 269 478 302 q 452 192 467 224 q 323 108 413 108 m 323 684 q 132 592 202 684 q 61 342 61 500 q 132 92 61 184 q 323 0 202 0 q 515 92 445 0 q 586 342 586 184 q 515 592 586 500 q 323 684 445 684 m 160 -119 l 268 -119 l 481 794 l 375 803 l 160 -119 z "},"ù":{"ha":625,"x_min":61,"x_max":564,"o":"m 456 326 q 450 258 456 290 q 429 186 443 217 q 313 108 392 108 q 192 199 228 108 q 173 276 179 232 q 169 342 169 308 l 169 684 l 61 684 l 61 342 q 106 130 61 216 q 231 14 150 44 l 238 12 l 244 9 q 313 0 277 0 q 382 9 349 0 l 387 12 l 395 14 q 462 58 432 28 l 466 0 l 564 0 l 564 684 l 456 684 l 456 326 m 180 880 l 302 890 l 356 743 l 283 737 l 180 880 z "},"ú":{"ha":625,"x_min":61,"x_max":564,"o":"m 456 326 q 450 258 456 290 q 429 186 443 217 q 313 108 392 108 q 192 199 228 108 q 173 276 179 232 q 169 342 169 308 l 169 684 l 61 684 l 61 342 q 106 130 61 216 q 231 14 150 44 l 238 12 l 244 9 q 313 0 277 0 q 382 9 349 0 l 387 12 l 395 14 q 462 58 432 28 l 466 0 l 564 0 l 564 684 l 456 684 l 456 326 m 273 743 l 328 890 l 450 880 l 347 737 l 273 743 z "},"û":{"ha":625,"x_min":61,"x_max":564,"o":"m 456 326 q 450 258 456 290 q 429 186 443 217 q 313 108 392 108 q 192 199 228 108 q 173 276 179 232 q 169 342 169 308 l 169 684 l 61 684 l 61 342 q 106 130 61 216 q 231 14 150 44 l 238 12 l 244 9 q 313 0 277 0 q 382 9 349 0 l 387 12 l 395 14 q 462 58 432 28 l 466 0 l 564 0 l 564 684 l 456 684 l 456 326 m 315 814 l 230 746 l 206 808 l 309 899 l 310 901 l 313 905 l 315 903 l 315 905 l 319 901 l 321 897 l 423 808 l 399 746 l 315 814 z "},"ü":{"ha":625,"x_min":61,"x_max":564,"o":"m 456 326 q 450 258 456 290 q 429 186 443 217 q 313 108 392 108 q 192 199 228 108 q 173 276 179 232 q 169 342 169 308 l 169 684 l 61 684 l 61 342 q 106 130 61 216 q 231 14 150 44 l 238 12 l 244 9 q 313 0 277 0 q 382 9 349 0 l 387 12 l 395 14 q 462 58 432 28 l 466 0 l 564 0 l 564 684 l 456 684 l 456 326 m 393 863 q 363 851 375 863 q 350 821 350 839 q 363 791 350 804 q 393 779 375 779 q 422 791 410 779 q 435 821 435 804 q 422 851 435 839 q 393 863 410 863 m 233 863 q 203 851 215 863 q 191 821 191 839 q 203 791 191 804 q 233 779 215 779 q 262 791 250 779 q 275 821 275 804 q 262 851 275 839 q 233 863 250 863 z "},"ý":{"ha":647,"x_min":61,"x_max":586,"o":"m 478 342 q 473 269 478 303 q 452 192 467 224 q 323 108 413 108 q 195 192 235 108 q 174 269 180 224 q 169 342 169 303 l 169 684 l 61 676 l 61 342 q 187 40 61 125 l 191 38 l 196 35 q 323 0 252 0 q 457 38 399 0 l 460 41 q 478 54 470 47 l 478 14 q 473 -59 478 -25 q 451 -134 466 -102 q 323 -218 412 -218 q 184 -102 220 -218 l 180 -88 l 68 -79 l 75 -107 q 165 -269 100 -211 q 323 -326 230 -326 q 510 -240 440 -326 q 585 -7 580 -155 l 586 -7 l 586 686 l 478 677 l 478 342 m 284 745 l 338 891 l 460 882 l 357 739 l 284 745 z "},"þ":{"ha":647,"x_min":61,"x_max":586,"o":"m 323 578 q 452 493 413 578 q 473 417 467 460 q 478 343 478 382 q 473 270 478 304 q 452 193 467 226 q 323 109 413 109 q 196 193 235 109 q 174 269 181 225 q 169 342 169 303 l 169 345 q 174 418 169 383 q 196 494 181 461 q 323 578 235 578 m 456 648 l 451 651 q 323 686 395 686 q 190 648 248 686 l 186 645 q 165 627 175 637 l 160 1002 l 61 994 l 61 -303 l 169 -294 l 169 56 q 186 41 178 47 l 196 35 q 323 1 252 1 q 450 34 393 1 l 455 37 q 460 41 456 38 q 553 161 521 83 q 586 343 586 239 q 460 646 586 559 l 456 648 z "},"ÿ":{"ha":647,"x_min":61,"x_max":586,"o":"m 478 342 q 473 269 478 303 q 452 192 467 224 q 323 108 413 108 q 195 192 235 108 q 174 269 180 224 q 169 342 169 303 l 169 684 l 61 676 l 61 342 q 187 40 61 125 l 191 38 l 196 35 q 323 0 252 0 q 457 38 399 0 l 460 41 q 478 54 470 47 l 478 14 q 473 -59 478 -25 q 451 -134 466 -102 q 323 -218 412 -218 q 184 -102 220 -218 l 180 -88 l 68 -79 l 75 -107 q 165 -269 100 -211 q 323 -326 230 -326 q 510 -240 440 -326 q 585 -7 580 -155 l 586 -7 l 586 686 l 478 677 l 478 342 m 404 865 q 374 853 386 865 q 361 823 361 840 q 374 793 361 805 q 404 781 386 781 q 433 793 421 781 q 446 823 446 805 q 433 853 446 840 q 404 865 421 865 m 243 865 q 214 853 226 865 q 201 823 201 840 q 214 793 201 805 q 243 781 226 781 q 273 793 261 781 q 286 823 286 805 q 273 853 286 840 q 243 865 261 865 z "},"ı":{"ha":431,"x_min":61,"x_max":370,"o":"m 271 151 q 338 34 271 34 l 370 34 l 370 0 l 70 0 l 70 34 l 101 34 q 169 151 169 34 l 169 444 q 94 496 169 496 l 61 496 l 61 526 q 238 650 212 573 l 271 650 l 271 151 z "},"ˆ":{"ha":517,"x_min":61,"x_max":456,"o":"m 61 732 l 218 972 l 298 972 l 456 732 l 416 732 l 258 878 l 100 732 l 61 732 z "},"ˇ":{"ha":517,"x_min":61,"x_max":456,"o":"m 61 972 l 100 972 l 258 827 l 416 972 l 456 972 l 298 731 l 218 731 l 61 972 z "},"ˉ":{"ha":472,"x_min":61,"x_max":411,"o":"m 61 810 l 61 895 l 411 895 l 411 810 l 61 810 z "},"˘":{"ha":518,"x_min":61,"x_max":457,"o":"m 61 915 l 96 915 q 146 842 107 865 q 260 819 186 819 q 372 842 334 819 q 422 915 411 865 l 457 915 q 393 778 444 825 q 260 732 343 732 q 126 779 177 732 q 61 915 75 825 z "},"˙":{"ha":249,"x_min":61,"x_max":188,"o":"m 124 968 q 169 949 151 968 q 188 904 188 930 q 169 859 188 878 q 124 841 151 841 q 79 859 98 841 q 61 904 61 878 q 79 949 61 930 q 124 968 98 968 z "},"˚":{"ha":363,"x_min":61,"x_max":302,"o":"m 113 852 q 132 804 113 824 q 180 785 152 785 q 229 804 209 785 q 248 852 248 824 q 228 900 248 880 q 180 920 208 920 q 133 900 153 920 q 113 852 113 880 m 61 852 q 96 938 61 903 q 180 972 130 972 q 267 938 232 972 q 302 852 302 903 q 267 767 302 802 q 180 732 232 732 q 96 767 130 732 q 61 852 61 802 z "},"˛":{"ha":372,"x_min":61,"x_max":311,"o":"m 245 0 q 170 -81 197 -42 q 143 -157 143 -120 q 161 -208 143 -189 q 211 -227 180 -227 q 258 -217 238 -227 q 292 -184 278 -206 l 311 -195 q 249 -260 286 -237 q 168 -283 212 -283 q 91 -259 121 -283 q 61 -198 61 -235 q 102 -92 61 -146 q 212 0 143 -37 l 245 0 z "},"˜":{"ha":377,"x_min":61,"x_max":316,"o":"m 61 923 q 125 916 90 911 q 157 923 140 918 l 189 933 q 316 943 273 960 l 316 870 q 189 860 273 887 q 125 843 146 846 q 61 850 90 838 l 61 923 z "},"˝":{"ha":350,"x_min":61,"x_max":289,"o":"m 61 769 l 134 769 l 155 1024 l 81 1024 l 61 769 m 289 1024 l 216 1024 l 195 769 l 268 769 l 289 1024 z "},"–":{"ha":377,"x_min":61,"x_max":316,"o":"m 61 572 l 61 499 l 316 520 l 316 593 l 61 572 z "},"—":{"ha":566,"x_min":61,"x_max":505,"o":"m 61 572 l 61 499 l 505 520 l 505 593 l 61 572 z "},"‘":{"ha":216,"x_min":61,"x_max":155,"o":"m 61 769 l 134 769 l 155 1024 l 81 1024 l 61 769 z "},"’":{"ha":216,"x_min":61,"x_max":155,"o":"m 134 1024 l 61 1024 l 81 769 l 155 769 l 134 1024 z "},"‚":{"ha":242,"x_min":61,"x_max":181,"o":"m 72 71 l 61 -68 l 170 -68 l 181 71 l 72 71 z "},"“":{"ha":350,"x_min":61,"x_max":289,"o":"m 61 769 l 134 769 l 155 1024 l 81 1024 l 61 769 m 289 1024 l 216 1024 l 195 769 l 268 769 l 289 1024 z "},"”":{"ha":350,"x_min":61,"x_max":289,"o":"m 268 1024 l 195 1024 l 216 769 l 289 769 l 268 1024 m 81 769 l 155 769 l 134 1024 l 61 1024 l 81 769 z "},"„":{"ha":350,"x_min":61,"x_max":289,"o":"m 61 769 l 134 769 l 155 1024 l 81 1024 l 61 769 m 289 1024 l 216 1024 l 195 769 l 268 769 l 289 1024 z "},"†":{"ha":714,"x_min":61,"x_max":653,"o":"m 342 693 q 306 814 337 759 q 267 901 267 882 q 292 955 267 935 q 357 975 316 975 q 421 956 395 975 q 446 907 446 937 q 409 814 446 886 q 372 693 378 757 q 492 730 437 699 q 579 768 560 768 q 633 744 612 768 q 653 679 653 720 q 634 615 653 640 q 585 589 616 589 q 493 627 564 589 q 372 665 435 658 q 446 477 377 546 q 370 -183 374 165 l 345 -183 q 267 477 340 165 q 342 665 336 546 q 222 628 277 659 q 134 589 153 589 q 81 614 101 589 q 61 679 61 638 q 80 743 61 718 q 128 768 98 768 q 221 730 150 768 q 342 693 279 699 z "},"‡":{"ha":714,"x_min":61,"x_max":653,"o":"m 372 126 q 493 165 435 134 q 585 202 564 202 q 634 177 616 202 q 653 113 653 151 q 633 47 653 72 q 579 23 612 23 q 492 62 560 23 q 372 98 437 93 q 409 -23 378 35 q 446 -116 446 -94 q 421 -164 446 -146 q 357 -183 395 -183 q 292 -163 316 -183 q 267 -110 267 -143 q 306 -22 267 -91 q 342 98 337 33 q 221 61 279 92 q 128 23 150 23 q 80 48 98 23 q 61 113 61 74 q 81 178 61 153 q 134 202 101 202 q 222 163 153 202 q 342 126 277 133 q 267 396 336 279 q 342 665 336 512 q 222 628 277 659 q 134 589 153 589 q 81 614 101 589 q 61 679 61 638 q 80 743 61 718 q 128 768 98 768 q 221 730 150 768 q 342 693 279 699 q 306 814 337 759 q 267 901 267 882 q 292 955 267 935 q 357 975 316 975 q 421 956 395 975 q 446 907 446 937 q 409 814 446 886 q 372 693 378 757 q 492 730 437 699 q 579 768 560 768 q 633 744 612 768 q 653 679 653 720 q 634 615 653 640 q 585 589 616 589 q 493 627 564 589 q 372 665 435 658 q 446 396 377 512 q 372 126 377 279 z "},"•":{"ha":524,"x_min":61,"x_max":463,"o":"m 61 487 q 120 629 61 570 q 262 687 179 687 q 404 628 345 687 q 463 487 463 570 q 403 345 463 404 q 261 286 344 286 q 119 345 178 286 q 61 487 61 404 z "},"…":{"ha":791,"x_min":61,"x_max":730,"o":"m 79 18 q 124 0 98 0 q 169 18 151 0 q 188 63 188 37 q 169 108 188 90 q 124 127 151 127 q 79 108 98 127 q 61 63 61 90 q 79 18 61 37 m 351 18 q 395 0 370 0 q 440 18 422 0 q 459 63 459 37 q 440 108 459 90 q 395 127 422 127 q 351 108 370 127 q 332 63 332 90 q 351 18 332 37 m 622 18 q 667 0 641 0 q 711 18 693 0 q 730 63 730 37 q 711 108 730 90 q 667 127 693 127 q 622 108 641 127 q 604 63 604 90 q 622 18 604 37 z "},"‹":{"ha":342,"x_min":61,"x_max":281,"o":"m 267 588 l 62 530 l 61 457 l 281 393 l 276 467 l 189 493 l 272 517 l 267 588 z "},"›":{"ha":342,"x_min":61,"x_max":281,"o":"m 71 517 l 154 493 l 66 467 l 61 393 l 281 457 l 281 530 l 75 588 l 71 517 z "},"⁄":{"ha":434,"x_min":61,"x_max":373,"o":"m 304 981 l 61 0 l 132 0 l 373 975 l 307 981 l 304 981 z "},"∕":{"ha":434,"x_min":61,"x_max":373,"o":"m 304 981 l 61 0 l 132 0 l 373 975 l 307 981 l 304 981 z "},"₣":{"ha":582,"x_min":61,"x_max":521,"o":"m 61 811 l 61 0 l 136 0 l 136 371 l 486 371 l 492 446 l 136 446 l 136 736 l 515 736 l 521 811 l 61 811 z "},"₤":{"ha":706,"x_min":61,"x_max":645,"o":"m 420 766 q 530 718 490 766 q 572 583 570 671 l 645 578 q 584 769 644 699 q 420 840 524 840 q 278 791 336 840 q 202 656 220 742 l 61 45 l 97 0 l 614 0 l 620 73 l 143 73 l 187 266 l 429 285 l 429 358 l 204 340 l 218 402 l 429 419 l 429 492 l 236 477 l 273 641 q 420 766 300 766 z "},"₧":{"ha":1375,"x_min":0,"x_max":0,"o":""},"€":{"ha":727,"x_min":61,"x_max":666,"o":"m 376 769 q 521 716 463 769 q 591 604 566 675 l 666 610 q 557 783 631 722 q 376 843 482 843 q 146 730 231 843 q 61 421 61 616 q 146 113 61 227 q 376 0 231 0 q 557 60 482 0 q 666 233 632 120 l 591 239 q 521 126 566 168 q 376 73 463 73 q 225 132 285 73 q 145 299 166 190 l 376 317 l 376 391 l 136 372 q 134 421 134 395 l 135 432 l 376 451 l 376 524 l 139 505 l 139 505 q 216 701 155 633 q 376 769 277 769 z "},"№":{"ha":1020,"x_min":61,"x_max":959,"o":"m 649 59 l 649 0 l 853 16 l 853 76 l 649 59 m 751 218 q 637 296 671 218 q 619 363 625 326 q 615 421 615 391 q 619 479 615 452 q 637 547 625 517 q 751 625 671 625 q 865 547 831 625 q 884 479 878 517 q 887 421 887 452 q 884 363 887 391 q 865 296 878 326 q 751 218 831 218 m 751 698 q 600 623 655 698 q 543 421 543 549 q 600 219 543 294 q 751 145 655 145 q 903 219 847 145 q 959 421 959 294 q 903 623 959 549 q 751 698 847 698 m 319 543 l 314 545 q 260 553 288 553 q 205 545 231 553 l 201 543 l 195 541 q 130 492 157 526 l 125 547 l 61 553 l 61 0 l 133 0 l 133 290 q 138 348 134 321 q 157 410 144 384 q 260 480 189 480 q 366 401 334 480 q 383 334 378 372 q 387 276 387 306 l 387 1 l 458 1 l 458 276 q 423 448 458 378 q 324 541 388 517 l 319 543 z "},"™":{"ha":365,"x_min":61,"x_max":304,"o":"m 179 999 l 179 828 l 199 828 l 199 947 l 233 861 l 250 859 l 285 946 l 285 828 l 304 828 l 304 998 l 286 999 l 241 887 l 198 998 l 179 999 m 61 999 l 61 980 l 104 980 l 104 828 l 123 828 l 123 980 l 167 980 l 167 999 l 61 999 z "},"∂":{"ha":610,"x_min":61,"x_max":549,"o":"m 304 522 q 194 448 228 522 q 176 380 181 419 q 171 316 171 351 q 176 251 171 281 q 194 184 181 212 q 304 110 228 110 q 416 184 382 110 q 434 251 429 212 q 439 316 439 281 q 434 380 439 351 q 416 448 429 419 q 304 522 382 522 m 304 0 q 127 85 192 0 q 61 316 61 170 q 127 547 61 462 q 304 632 192 632 q 399 613 356 632 q 338 734 375 683 q 92 869 249 861 l 73 870 l 65 980 l 89 979 q 429 798 305 971 q 549 338 549 628 l 549 330 l 549 316 q 483 85 549 170 q 304 0 418 0 z "},"∆":{"ha":846,"x_min":61,"x_max":785,"o":"m 406 810 l 130 83 l 673 83 l 406 810 m 428 972 l 785 0 l 61 0 l 428 972 z "},"∏":{"ha":1084,"x_min":61,"x_max":1023,"o":"m 375 939 q 306 779 306 939 l 306 -90 q 375 -249 306 -249 l 441 -249 l 441 -283 l 61 -283 l 61 -249 l 126 -249 q 196 -90 196 -249 l 196 779 q 126 939 196 939 l 61 939 l 61 972 l 1023 972 l 1023 939 l 958 939 q 888 779 888 939 l 888 -90 q 958 -249 888 -249 l 1023 -249 l 1023 -283 l 644 -283 l 644 -249 l 709 -249 q 779 -90 779 -249 l 779 779 q 709 939 779 939 l 375 939 z "},"∑":{"ha":817,"x_min":61,"x_max":755,"o":"m 698 372 l 163 -248 l 594 -248 q 722 -125 682 -248 l 755 -125 l 686 -282 l 61 -282 l 61 -248 q 133 -212 103 -248 l 583 317 l 133 900 q 61 939 103 939 l 61 972 l 686 972 l 755 815 l 722 815 q 594 939 682 939 l 265 939 l 698 372 z "},"−":{"ha":377,"x_min":61,"x_max":316,"o":"m 61 572 l 61 499 l 316 520 l 316 593 l 61 572 z "},"√":{"ha":825,"x_min":61,"x_max":764,"o":"m 172 0 l 61 243 l 111 267 l 169 142 l 663 1139 l 764 1139 l 764 1098 l 715 1098 l 172 0 z "},"∞":{"ha":722,"x_min":61,"x_max":661,"o":"m 314 512 q 264 602 304 582 q 207 617 233 617 q 191 616 199 617 q 129 586 158 609 q 84 528 99 562 q 71 467 71 497 l 71 462 q 89 401 72 429 q 138 362 106 374 q 179 355 157 355 q 201 357 190 355 q 263 386 233 363 q 314 512 292 409 m 332 466 q 396 362 340 401 q 479 330 443 330 q 494 331 487 330 q 573 366 536 339 q 631 435 611 393 q 648 508 648 471 l 648 515 q 624 589 647 556 q 562 635 602 622 q 511 644 537 644 q 481 642 496 644 q 395 600 435 635 q 332 466 354 564 m 321 561 q 336 608 328 585 q 400 701 359 667 q 487 734 441 734 q 574 701 532 734 q 638 610 615 669 q 661 486 661 551 q 638 363 661 422 q 574 271 615 304 q 487 239 532 239 q 400 272 441 239 q 336 364 359 305 q 321 412 328 388 q 313 384 318 397 q 263 307 295 334 q 196 280 231 280 q 128 308 161 280 q 78 385 96 336 q 61 486 61 434 q 78 587 61 538 q 128 665 96 637 q 196 692 161 692 q 263 665 231 692 q 313 589 295 638 q 321 561 318 575 z "},"∫":{"ha":663,"x_min":61,"x_max":602,"o":"m 102 -191 q 61 -171 61 -191 l 61 -63 l 85 -63 q 109 -107 86 -92 q 152 -121 132 -121 l 153 -121 q 231 -12 208 -121 q 258 203 252 98 l 305 701 l 311 743 q 402 1034 329 904 q 561 1164 475 1164 q 602 1144 602 1164 l 602 1036 l 577 1036 q 553 1080 576 1065 q 511 1095 530 1095 q 432 989 463 1095 q 399 743 401 884 l 349 222 q 261 -62 336 66 q 102 -191 186 -191 z "},"≈":{"ha":377,"x_min":61,"x_max":316,"o":"m 61 376 q 125 370 90 365 q 189 387 146 373 q 316 397 273 414 l 316 470 q 189 460 273 488 l 157 450 q 125 444 139 446 q 61 450 90 438 l 61 376 m 61 511 q 125 504 90 499 q 189 521 146 507 q 316 531 273 548 l 316 604 q 189 594 273 621 l 157 584 q 125 577 139 579 q 61 584 90 572 l 61 511 z "},"≤":{"ha":302,"x_min":61,"x_max":241,"o":"m 61 439 l 61 366 l 241 380 l 241 454 l 61 439 m 229 625 l 62 578 l 61 521 l 241 469 l 237 524 l 152 549 l 233 572 l 229 625 z "},"≥":{"ha":302,"x_min":61,"x_max":241,"o":"m 61 454 l 61 380 l 241 366 l 241 439 l 61 454 m 68 572 l 149 549 l 65 524 l 61 469 l 241 521 l 240 578 l 73 625 l 68 572 z "},"":{"ha":610,"x_min":61,"x_max":549,"o":"m 277 209 l 277 565 l 304 565 q 445 614 396 565 q 494 757 494 664 q 445 899 494 850 q 304 949 396 949 q 168 903 217 949 q 117 769 119 856 l 61 773 q 131 943 66 880 q 304 1004 197 1004 q 484 938 418 1004 q 549 757 549 871 q 494 587 549 652 q 340 511 438 522 l 332 510 l 332 204 l 277 209 m 304 0 q 279 11 290 0 q 269 37 269 22 q 279 62 269 52 q 304 73 290 73 q 330 62 320 73 q 341 37 341 52 q 330 11 341 22 q 304 0 320 0 z "},"ﬁ":{"ha":610,"x_min":61,"x_max":549,"o":"m 277 209 l 277 565 l 304 565 q 445 614 396 565 q 494 757 494 664 q 445 899 494 850 q 304 949 396 949 q 168 903 217 949 q 117 769 119 856 l 61 773 q 131 943 66 880 q 304 1004 197 1004 q 484 938 418 1004 q 549 757 549 871 q 494 587 549 652 q 340 511 438 522 l 332 510 l 332 204 l 277 209 m 304 0 q 279 11 290 0 q 269 37 269 22 q 279 62 269 52 q 304 73 290 73 q 330 62 320 73 q 341 37 341 52 q 330 11 341 22 q 304 0 320 0 z "},"":{"ha":610,"x_min":61,"x_max":549,"o":"m 277 209 l 277 565 l 304 565 q 445 614 396 565 q 494 757 494 664 q 445 899 494 850 q 304 949 396 949 q 168 903 217 949 q 117 769 119 856 l 61 773 q 131 943 66 880 q 304 1004 197 1004 q 484 938 418 1004 q 549 757 549 871 q 494 587 549 652 q 340 511 438 522 l 332 510 l 332 204 l 277 209 m 304 0 q 279 11 290 0 q 269 37 269 22 q 279 62 269 52 q 304 73 290 73 q 330 62 320 73 q 341 37 341 52 q 330 11 341 22 q 304 0 320 0 z "},"ﬂ":{"ha":610,"x_min":61,"x_max":549,"o":"m 277 209 l 277 565 l 304 565 q 445 614 396 565 q 494 757 494 664 q 445 899 494 850 q 304 949 396 949 q 168 903 217 949 q 117 769 119 856 l 61 773 q 131 943 66 880 q 304 1004 197 1004 q 484 938 418 1004 q 549 757 549 871 q 494 587 549 652 q 340 511 438 522 l 332 510 l 332 204 l 277 209 m 304 0 q 279 11 290 0 q 269 37 269 22 q 279 62 269 52 q 304 73 290 73 q 330 62 320 73 q 341 37 341 52 q 330 11 341 22 q 304 0 320 0 z "}}}
